/* XPM */
static char *result[] = {
/* columns rows colors chars-per-pixel */
"96 96 12 1 ",
"  c black",
". c #131318",
"X c #343C1E",
"o c #1F1F24",
"O c #24303E",
"+ c #57253B",
"@ c #444823",
"# c #6D7E3E",
"$ c #494C54",
"% c #8F974A",
"& c #757F8B",
"* c #8F9BA9",
/* pixels */
"%%%%%%%%%%%%%%%%%%%%%%%%%%%%%%%%%%%%%%%%%%%%%%%%%%%%%%%%%%%%%%%%%%%%%%%%%%%%%%%%%%%%%%%%%%%%%%%%",
"%%%%%%%%%%%%%%%%%%%%%%%%%%%%%%%%%%%%%%%%%%%%%%%%%%%%%%%%%%%%%%%%%%%%%%%%%%%%%%%%%%%%%%%%%%%%%%%%",
"%%%%%%%%%%%%%%%%%%%%%%%%%%%%%%%%%%%%%%%%%%%%%%%%%%%%%%%%%%%%%%%%%%%%%%%%%%%%%%%%%%%%%%%%%%%%%%%%",
"%%%%%%%%%%%%%%%%%%%%%%%%%%%%%%%%%%%%%%%%%%%%%%%%%%%%%%%%%%%%%%%%%%%%%%%%%%%%%%#%%%%%%%%%%%%%%%%%",
"%%%%%%%%%%%%%%%%%%%%%%%%%%%%%%%%%%%%%%%%%%%%%%%%%%%%%%%%%%%#%%%%%%%%%%%%%%%%%##%%%%%%%%%%%%%%%%%",
"%%%%%%%%%%%%%%%%%%%%%%%%%%%%%%%%%%%%%%%%%%%%%%%%%%%%#%%%%%%#%%%%%%%%%%%%%%%%%##%###%%%%%%%%%%%%%",
"%%%%%%%%%%%%%%%%%%%%%%%%%%%%%%%%%%%%%%%%%%%%%%%%%%%%%#%%%%#%%%%%%%%%%%%%%%#%##%###%%%%%%%%%%%%%%",
"%%%%%%%%%%%%%%%%%%%%%%%%%%%%%%%%%%%%%%%%%%%%%%%%%%%%%##%%##%%%%%%%%%%%%%%%####%##%%%%%%%%%%%%%%%",
"%%%%%%%%%%%%%%%%%%%%%%%%%%%%%%%%%%%%%%%%%%%%%%%%%%%%%%##%##%%%%%%%%%%%%%%%%######%%%%%%%%%%%%%%%",
"%%%%%%%%%%%%%%%%%%%%%%%%%%%%%%%%%%%%%%%%%%%%%%%%%%%%%%%#%##%%%%%%%%%%%%%%%%%##%#%%%%%%%%%%%%%%%%",
"%%%%%%%%%%%%%%%%%%%%%%%%%%%%%%%%%%%%%%%%%%%%%%%%%%%%%%%####%%%%%%%%%%%%%%%%%##%#%%%%%%%%%%%%%%%%",
"%%%%%%%%%%%%%%%%%%%%%%%%%%%%%%%%%%%%%%%%%%%%%%%%%%%%%%%%#%%%%%%%%%%%%%%%%%%%%%%%%%%%%%%%%%%%%%%%",
"%%%%%%%%%%%%%%%%#%%%%%%%%%%%%%%%%%%%%%%%%%%%%%%%%%%%%%%%#%%%%%%%%%%%%%%%%%%%%%%%%%%%%%%%%%%%%%%%",
"%%%%%%%%%%%%%%%%##%%%%%%%%%%%%%%%%%%%%%%%%%%%%%%%%%%%%%%%%%%%%%%%%%%%%%%%%%%%%%%%%%%%%%%%%%%%%%%",
"%%%%%%%%%%%%%%%%%#%%%%%%%%%%%%%%%%%%%%%%%%%%%%%%%%%%%%%%%%%%%%%%%%%%%%%%%%%%%%%%%%%%%%%%%%%%%%%%",
"%%%%%%%%%%%%%%%%%%#%%##%%%%%%%%%%%%%%%%%%%%%%%%%%%%%%%%%%%%%%%%%%%%%%%%%%%%%%%%%%%%%%%%%%%%%%%%%",
"%%%%%%%%%%%%%%%%%%##%#%%%%%%%%%%%%%%%%%%%%%%%    %%%%%%%%%%%%%%%%%%%    %%%%%%%%%%%%%%%%%%%%%%%%",
"%%%%%%%%%%%%%%%%%%%#%###%%%%%%%%%%%%%%%%%%%%%    %%%%%%%%%%%%%%%%%%%    %%%%%%%%%%%%%%%%%%%%%%%%",
"%%%%%%%%%%%%%%%%%%%####%%%%%%%%%%%%%%%%%%%%%%    %%%%%%%%%%%%%%%%%%%    %%%%%%%%%%%%%%%%%%%%%%%%",
"%%%%%%%%%%%%%%%%%%%####%%%%%%%%%%%%%%%%%%    $$$$    %%%%%%%%%%%    $$$$     %%%%%%%%%%%%%%%%%%%",
"%%%%%%%%%%%%%%%%%%%%%%%%%%%%%%%%%%%%%%%%%    $$$$    %%%%%%%%%%%    $$$$     %%%%%%%%%%%%%%%%%%%",
"%%%%%%%%%%%%%%%%%%%%%%%%%%%%%%%%%%%%%%%%%    $$$$    %%%%%%%%%%%    $$$$     %%%%%%%%%%%%%%%%%%%",
"%%%%%%%%%%%%%%%%%%%%%%%%%%%%%%%##%%%%%#%%    $$$$    %%%%%%%%%%%    $$$$     %%%%%%%%%%%%%%%%%%%",
"%%%%%%%%%%%%%%%%%%%%%%%%%%%%%%%%##%%%    $$$$&&&&$$$$           $$$$&&&&     %%%%%%%%%%%%%%%%%%%",
"%%%%%%%%%%%%%##%%%%%%%%%%%%%%%%%##%%#    $$$$&&&&$$$$           $$$$&&&&     %%%%%%%%%%%%%%%%%%%",
"%%%%%%%%##%%%##%%%%%%%%%%%%%%%%%%##%#    $$$$&&&&$$$$           $$$$&&&&     %%%%%%%%%%%%%%%%%%%",
"%%%%%%%%%##%%#%%%%%%%%%%%%%%%%%%%##%#    $$$$&&&&$$$$           $$$$&&&&     %%%%%%%%%%%%%%%%%%%",
"%%%%%%%%%%####%##%%%%%%%%%%%%%%%%%###    $$$$$$$$$$$$$$$$$$$$$$$$$$$$$$$     %%%%%%%%%%%%%%%%%%%",
"%%%%%%%%%%%##%%#%%%%%%%%%%%%%%%%%%###    $$$$$$$$$$$$$$$$$$$$$$$$$$$$$$$     %%%%%%%%%%%%%%%%%%%",
"%%%%%%%%%%%####%%%%%%%%%%%%%%%%%%%%%%    $$$$$$$$$$$$$$$$$$$$$$$$$$$$$$$     %%%%%%%%%%%%%%%%%%%",
"%%%%%%%%%%%%##%%%%%%%%%%%%%%%%%%%%%%%    $$$$$$$$$$$$$$$$$$$$$$$$$$$$$$$     %%%%%%%%%%%%%%%%%%%",
"%%%%%%%%%%%%%%%%%%%%%%%%%%%%%%%%%%%%%    $$$$$$$$$$$$$$$$$$$$$$$$$$$$$$$     %%%%%%%%%%%%%%%%%%%",
"%%%%%%%%%%%%%%%%%%%%%%%%%%%%%%%%%%%%%    $$$$$$$$$$$$$$$$$$$$$$$$$$$$$$$     %%%%%%%%%%%%%%%%%%%",
"%%%%%%%%%%%%%%%%%%%%%%%%%%%%%%%%%%%%%    $$$$$$$$$$$$$$$$$$$$$$$$$$$$$$$     %%%%%%%%%%%%%%%%%%%",
"%%%%%%%%%%%%%%%%%%%%%%%%%%%%%%%%%%%%%    $$$$$$$$$$$$$$$$$$$$$$$$$$$$$$$     %%%%%%%%%%%%%%%%%%%",
"%%%%%%%%%%%%%%%%%%%%%    %%%%%%%%    $$$$$$$$$$$$$$$$$$$$$$$****$$$$$$$$$$$$$    %%%%%%%%%%%%%%%",
"%%%%%%%%%%%%%%%%%%%%%    %%%%%%%%    $$$$$$$$$$$$$$$$$$$$$$$****$$$$$$$$$$$$$    %%%%%%%%%%%%%%%",
"%%%%%%%%%%%%%%%%%%%%%    %%%%%%%%    $$$$$$$$$$$$$$$$$$$$$$$****$$$$$$$$$$$$$    %%%%%%%%%%%%%%%",
"%%%%%%%%%%%%%%%%%%%%%    %%%%%%%%    $$$$$$$$$$$$$$$$$$$$$$$****$$$$$$$$$$$$$    %#%%%%%%%%%%%%%",
"%%%%%%%%%%%%%%%%%%   &&&&    %%%%    $$$$$$$$$$$$$$$$....$$$****$$$$....$$$$$    #%%%%%%%%%%%%%%",
"%%%%%%%%%%%%%%%%%%   &&&&    %%%%    $$$$$$$$$$$$$$$$....$$$****$$$$....$$$$$    #%%%%%%%%%%%%%%",
"%%%%%%%%%%%%%%%%%%   &&&&    %%%%    $$$$$$$$$$$$$$$$....$$$****$$$$....$$$$$    %%%%%%%%%%%%%%%",
"%%%%%%%%%%%%%%%%%%   &&&&    %%%%    $$$$$$$$$$$$$$$$....$$$****$$$$....$$$$$    #%%%%%%%%%%%%%%",
"%%%%%%%%%%%%%%    $$$    OOOO        $$$$$$$$$$$$$$$$....***********....$$$$$    #%%%%%%%%%%%%%%",
"%%%%%%%%%%%%%%    $$$    OOOO        $$$$$$$$$$$$$$$$....***********....$$$$$    %%%%%%%%%%%%%%%",
"%%%%%%%%%%%%%%    $$$    OOOO        $$$$$$$$$$$$$$$$....***********....$$$$$    %%%%%%%%%%%%%%%",
"%%%%%%%%%%%%%%    $$$    OOOO        $$$$$$$$$$$$$$$$....***********....$$$$$    %%%%%%%%%%%%%%%",
"%%%%%%%%%%%%%#    $$$        $$$$$$$$oooo$$$$$$$$$$$$*******++++********     %%%%%%%%%%%%%%%%%%%",
"%%%%%%%%%%%%%%    $$$        $$$$$$$$oooo$$$$$$$$$$$$*******++++********     %%%%%%%%%%%%%%%%%%%",
"%%%%%%%%%%%%%%    $$$        $$$$$$$$oooo$$$$$$$$$$$$*******++++********     %%%%%%%%%%%%%%%%%%%",
"%%%%%%%%%%%%%%%%##   oooooooo$$$$$$$$oooooooo$$$$&&&&&&&&&&&&&&&&&&&    %%%%%%%%%%%%%%%%%%%%%%%%",
"%%%%%%%%%%%%%%%%%#   oooooooo$$$$$$$$oooooooo$$$$&&&&&&&&&&&&&&&&&&&    %%%%%%%%%%%%%%%%%%%%%%%%",
"%%%%%%%%%%%%%%%%%%   oooooooo$$$$$$$$oooooooo$$$$&&&&&&&&&&&&&&&&&&&    %%%%%%%%%%%%%%%%%%%%%%%%",
"%%%%%%%%%%%%%%%%%%   oooooooo$$$$$$$$oooooooo$$$$&&&&&&&&&&&&&&&&&&&    %%%%%%%%%%%%%%%%%%%%%%%%",
"%%%%%%%%%%%%%%%%%%   oooooooo$$$$$$$$oooooooo$$$$&&&&&&&&&&&&&&&&&&&    %%%%%%%%%%%%%%%%%%%%%%%%",
"%%%%%%%%%%%%%%%%%%   oooooooo$$$$$$$$oooooooo$$$$&&&&&&&&&&&&&&&&&&&    %%%%%%%%%%%%%%%%%%%%%%%%",
"%%%%%%%%%%%%%%%%%%%%%    oooooooo$$$$$$$$ooooooooooooooooooooooo    %%%%%%%%%%%%%%%%%%%%%%%%%%%%",
"%%%%%%%%%%%%%%%%%%%%%    oooooooo$$$$$$$$ooooooooooooooooooooooo    %%%%%%%%%%%%%%%%%%%%%%%%%%%%",
"%%%%%%%%%%%%%%%%%%%%%    oooooooo$$$$$$$$ooooooooooooooooooooooo    %%%%%%%%%%%%%%%%%%%%%%%%%%%%",
"%%%%%%%%%%%%%%%%%%%%%%%%%    ooooooooooooooooooooooooooooooooooo    %%%%%%%%%%%%%%%%%%%%%%%%%%%%",
"%%%%%%%%%%%%%%%%%%%%%%%%%    ooooooooooooooooooooooooooooooooooo    %%%%%%%%%%%%%%%%%%%%%%%%%%%%",
"%%%%%%%%%%%%#%%%%#%%%%%%%    ooooooooooooooooooooooooooooooooooo    %%#%%%%%%%%%%%%%%%%%%%%%%%%%",
"%%%%%%%%%%%%##%%##%%%%%%%%%  ooooooooooooooooooooooooooooooooooo    %##%%%%%%%%%%%%%%%%%%%%%%%%%",
"%%%%%%%%%%%%##%%#%%%%%%%%%%  ooooooooooooooooooooooooooooooo    %%%%%##%%%%%%%%%##%%%%%#%%%%%%%%",
"%%%%%%%%%%%%%##%#%%%%%%%%%%  ooooooooooooooooooooooooooooooo    ##%%###%%%%%%%%%###%%%##%%%%%%%%",
"%%%%%%%%%%%%%##%#%%%%%%%%%%  ooooooooooooooooooooooooooooooo    %##%##%%%%%%%%%%%######%%%%%%%%%",
"%%%%%%%%%%%#%%###%%%%%%%%%%  ooooooooooooooooooooooooooooooo    %%###%%%%%%%%%%%%%#%###%%%%%%%%%",
"%%%%%%%%%%%##%###%%%%%%%%%%  oooo    ....        oooo    ...  %%#####%%%%%%%%%%%%%%#%##%%%%%%%%%",
"%%%%%%%%%%%%##%#%%%%%%%%%%%  oooo    ....        oooo    ...  %%%####%%%%%%%%%%%%%%####%%%%%%%%%",
"%%%%%%%%%%%%%#%#%%%%%%%%%%%  oooo    ....        oooo    ...  %%%%%%%%%%%%%%%%%%%%%%###%%%%%%%%%",
"%%%%%%%%%%%%%%%#%%%%%%%%%%%  oooo    ....  %%%#  oooo    ...  %%%%%%%%%%%%%%%%%%%%%%###%%%%%%%%%",
"%%%%%%%%%%%%%%%%%%%%%%%%%%%  oooo    ....  @@@X  oooo    ...  %%%%%%%%%%%%%%%%%%%%%%%#%#%%%%%%%%",
"%%%%%%%%%%%%%%%%%%%%%%%%@@@  oooo    ....  @@@X  oooo    ...  @@@%%%%%%%%%%%%%%%%%%%%%%%%%%%%%%%",
"%%%%%%%%%%%%%%%%%%%%%@@@@@@  oooo    ....  @@@X  oooo    ...  @@@@@@%%%%%%%%%%%%%%%%%%%%%%%%%%%%",
"%%%%%%%%%%%%%%%%%%%%@@@@@@@  oooo    ....  @@@@  oooo   @...  @@@@@@@%%%%%%%%%%%%%%%%%%%%%%%%%%%",
"%%%%%%%%%%%%%%%%%%%%%@@@@@@@@@@@@@@@@@@@@XXXXX@XXX@@@@@@@@@@@@@@@@@@%%%%%%%%%%%%%%%%%%%%%%%%%%%%",
"%%%%%%%%%%%%%%%%%%%%%%%%@@@@@@@@@@@@@@@@@@@@@XXXX@@@@@@@@@@@@@@@@%%%%%%%%%%%%%%%%%%%%%%%%%%%%%%%",
"%%%%%%%%%%%%%%%%%%%%%%%%%%%%%%%%@@@@@@@@@@@@@@XXX@@@@@@@@%%%%%%%%%%%%%%%%%%%%%%%%%%%%%%%%%%%%%%%",
"%%%%%%%%%%%%%%%%%%%%%%%%%%%%%%%%%%%%%%%%%%%%%%%#%%%%%%%%%%%%%%%%%%%%%%%%%#%%%%%%%%%%%%%%%%%%%%%%",
"%%%%%%%%%%%%%%%%%%%%%%%%%%%%%%%%#%%%%%%%%%%%%%%%%%%%%%%%%%%%%%%%%%%%%%%%##%%%%%%%%%%%%%%%%%%%%%%",
"%%%%%%%%%%%%%%%%%%%%%%%%%##%%%%%#%%%%%%%%%%%%%%%%%%%%%%%%%%%%%%%%%%%%%%##%%%%%%%%%%%%%%%%%%%%%%%",
"%%%%%%%%%%%%%%%%%%%%%%%%%###%%%##%%%%%%%%%%%%%%%%%%%%%%%%%%%%%%%%%%#%%###%%%%%%%%%%%%%%%%%%%%%%%",
"%%%%%%%%%%%%%%%%%##%%%%%%%##%%%#%%%%%%%%%%%%%%%%%%%%%%%%%%%%%%%%%%%##%###%%%%%%%%%%%%%%%%%%%%%%%",
"%%%%%%%%%###%%%%%##%%%%%%%###%##%##%%%%%%%%%%%%%%%%%%%%%%%%%%%%###%%####%%%%%%%%%%%%%%%%%%%%%%%%",
"%%%%%%%%%%%###%%##%%%%%%%#%#######%%%%%%%%%%%%%%%%%%%%%%%%%%%%%%%#######%%%%%%%%%%%%%%%%%%%%%%%%",
"%%%%%%%%%%%%%####%%%%%%%%##%#####%%%%%%%%%%%%%%%%%%%%%%%%%%%%%%%%%######%%%%%%%%%%%%%%%%%%%%%%%%",
"%%%%%%%%%%%%%####%%%%%%%%%######%%%%%%%%%%%%%%%%%%%%%%%%%%%%%%%%%%%####%%%%%%%%%%%%%%%%%%%%%%%%%",
"%%%%%%%%%%%%%####%%%%%%%%%%###%#%%%%%%%%%%%%%%%%%%%%%%%%%%%%%%%%%%%#%%%%%%%%%%%%%%%%%%%%%%%%%%%%",
"%%%%%%%%%%%%%%%%%%%%%%%%%%%%#%%%%%%%%%%%%%%%%%%%%%%%%%%%%%%%%%%%%%%%%%%%%%%%%%%%%%%%%%%%%%%%%%%%",
"%%%%%%%%%%%%%%%%%%%%%%%%%%%%%%%%%%%%%%%%%%%%%%%%%%%%%%%%%%%%%%%%%%%%%%%%%%%%%%%%%%%%%%%%%%%%%%%%",
"%%%%%%%%%%%%%%%%%%%%%%%%%%%%%%%%%%%%%%%%%%%%%%%%%%%%%%%%%%%%%%%%%%%%%%%%%%%%%%%%%%%%%%%%%%%%%%%%",
"%%%%%%%%%%%%%%%%%%%%%%%%%%%%%%%%%%%%%%%%%%%%%%%%%%%%%%%%%%%%%%%%%%%%%%%%%%%%%%%%%%%%%%%%%%%%%%%%",
"%%%%%%%%%%%%%%%%%%%%%%%%%%%%%%%%%%%%%%%%%%%%%%%%%%%%%%%%%%%%%%%%%%%%%%%%%%%%%%%%%%%%%%%%%%%%%%%%",
"%%%%%%%%%%%%%%%%%%%%%%%%%%%%%%%%%%%%%%%%%%%%%%%%%%%%%%%%%%%%%%%%%%%%%%%%%%%%%%%%%%%%%%%%%%%%%%%%",
"%%%%%%%%%%%%%%%%%%%%%%%%%%%%%%%%%%%%%%%%%%%%%%%%%%%%%%%%%%%%%%%%%%%%%%%%%%%%%%%%%%%%%%%%%%%%%%%%",
"%%%%%%%%%%%%%%%%%%%%%%%%%%%%%%%%%%%%%%%%%%%%%%%%%%%%%%%%%%%%%%%%%%%%%%%%%%%%%%%%%%%%%%%%%%%%%%%%"
};
