/* XPM */
static char *result[] = {
/* columns rows colors chars-per-pixel */
"96 96 8 1 ",
"  c #343C1E",
". c #302732",
"X c #3A3737",
"o c #3A313A",
"O c #444823",
"+ c #6D7E3E",
"@ c #4B444C",
"# c #8F974A",
/* pixels */
"################################################################################################",
"########################################...##########....#######################################",
"########################################...##########....#######################################",
"########################################...##########....#####################+#################",
"####################################....@@@....###...@@@@...#################++#################",
"####################################....@@@....###...@@@@...#################++#+++#############",
"####################################....@@@....###...@@@@...##############+#++#+++##############",
"#################################...@@@@@@@@@@@...@@@@@@@@@@...###########++++#++###############",
"#################################...@@@@@@@@@@@...@@@@@@@@@@...############++++++###############",
"#################################...@@@@@@@@@@@...@@@@@@@@@@...#############++#+################",
"#################################...@@@@@@@@@@@...@@@@@@@@@@...#############++#+################",
"##############################XXX@@@oooo@@@@@@@ooo@@@@@@@ooo@@@XXXX#############################",
"################+#############XXX@@@oooo@@@@@@@ooo@@@@@@@ooo@@@XXXX#############################",
"################++############XXX@@@oooo@@@@@@@ooo@@@@@@@ooo@@@XXXX#############################",
"#################+############XXX@@@oooo@@@@@@@@@@@@@@@@@ooo@@@XXXX#############################",
"##################+##++#######XXX@@@oooo@@@@@@@@@@@@@@@@@ooo@@@XXXX#############################",
"##################++#+########XXX@@@oooo@@@@@@@@@@@@@@@@@ooo@@@XXXX#############################",
"###################+#+++######...ooo@@@@@@@@@@@@@@@@@@@@@@@@ooo....#############################",
"###################++++#######...ooo@@@@@@@@@@@@@@@@@@@@@@@@ooo....#############################",
"###################++++#######...ooo@@@@@@@@@@@@@@@@@@@@@@@@ooo....#############################",
"##############################...ooo@@@@@@@@@@@@@@@@@@@@@@@@ooo....#############################",
"##########################oooo......@@@@@@@@@@@@@@@@@@@@@@@@.......ooo##########################",
"##########################oooo......@@@@@@@@@@@@@@@@@@@@@@@@.......ooo##########################",
"##########################oooo......@@@@@@@@@@@@@@@@@@@@@@@@.......ooo##########################",
"#############++###############...ooo@@@@@@@@@@@@@@@@@@@@@@@@ooo....#############################",
"########++###++###############...ooo@@@@@@@@@@@@@@@@@@@@@@@@ooo....#############################",
"#########++##+################...ooo@@@@@@@@@@@@@@@@@@@@@@@@ooo....#############################",
"##########++++#++#########oooo......@@@@@@@@@@@@@@@@@@@@@@@@.......ooo##########################",
"###########++##+##########oooo......@@@@@@@@@@@@@@@@@@@@@@@@.......ooo##########################",
"###########++++###########oooo......@@@@@@@@@@@@@@@@@@@@@@@@.......ooo##########################",
"############++############oooo......@@@@@@@@@@@@@@@@@@@@@@@@.......ooo##########################",
"##############################XXX...oooo@@@@@@@@@@@@@@@@@ooo...XXXX#############################",
"##############################XXX...oooo@@@@@@@@@@@@@@@@@ooo...XXXX#############################",
"##############################XXX...oooo@@@@@@@@@@@@@@@@@ooo...XXXX#############################",
"#################################XXX....ooo..........oooo...XXX#################################",
"#################################XXX....ooo..........oooo...XXX#################################",
"#################################XXX....ooo..........oooo...XXX#################################",
"#################################XXXoooo@@@@@@@@@@@@@@@@@oooXXX#################################",
"#################################XXXoooo@@@@@@@@@@@@@@@@@oooXXX###################+#############",
"#################################XXXoooo@@@@@@@@@@@@@@@@@oooXXX###########+++####+##############",
"#################################XXXoooo@@@@@@@@@@@@@@@@@oooXXX#############++###+##############",
"#################################XXXoooo@@@@@@@@@@@@@@@@@oooXXX##############++#+###############",
"#################################XXXoooo@@@@@@@@@@@@@@@@@oooXXX##############++#++##############",
"#################################XXXoooo@@@@@@@@@@@@@@@@@oooXXX###############++#+##############",
"##############################XXXooo@@@@@@@@@@@@@@@@@@@@@@@@oooXXXX#############################",
"######################+#######XXXooo@@@@@@@@@@@@@@@@@@@@@@@@oooXXXX#############################",
"#####################++#######XXXooo@@@@@@@@@@@@@@@@@@@@@@@@oooXXXX#############################",
"#############++#####++########XXXooo@@@@@@@@@@@@@@@@@@@@@@@@oooXXXX#############################",
"##############+++##++#########XXXooo@@@@@@@@@@@@@@@@@@@@@@@@oooXXXX#############################",
"###############++##+##########XXXooo@@@@@@@@@@@@@@@@@@@@@@@@oooXXXX#############################",
"################++#++#+######+XXXooo@@@@@@@@@@@@@@@@@@@@@@@@oooXXXX#############################",
"#################++++#+####   XXXooo@@@@@@@@@@@@@@@@@@@@@@@@oooXXXXO############################",
"##################+++++#### O XXXooo@@@@@@@@@@@@@@@@@@@@@@@@oooXXXXO############################",
"###################+++#####  OXXXooo@@@@@@@@@@@@@@@@@@@@@@@@oooXXXXO############################",
"###########################OOOXXXooo@@@@@@@@@@@XXX@@@@@@@@@@oooXXXXO############################",
"###########################OOOXXXooo@@@@@@@@@@@XXX@@@@@@@@@@oooXXXXO############################",
"###########################OOOXXXooo@@@@@@@@@@@XXX@@@@@@@@@@oooXXXXO############################",
"###########################OOOXXXooo@@@@@@@@@@@XXX@@@@@@@@@@oooXXXXO############################",
"##########################OOOOXXXooo@@@@@@@XXXX@@@XXX@@@@@@@oooXXXXOO###########################",
"##########################OOOOXXXooo@@@@@@@XXXX@@@XXX@@@@@@@oooXXXXOO###########################",
"##########################OOOOXXXooo@@@@@@@XXXX@@@XXX@@@@@@@oooXXXXOO###########################",
"############+####+########OOOOXXX...@@@@@@@XXXXoooXXX@@@@@@@...XXXXOO#+#########################",
"############++##++########OOOOXXX...@@@@@@@XXXXoooXXX@@@@@@@...XXXXOO++#########################",
"############++##+#########OOOOXXX...@@@@@@@XXXXoooXXX@@@@@@@...XXXXOO++#########++#####+########",
"#############++#+##########OOOXXX.......@@@XXXX...XXX@@@@......XXXXO+++#########+++###++########",
"#############++#+##########OOOXXX.......@@@XXXX...XXX@@@@......XXXXO++###########++++++#########",
"###########+##+++##########OOOXXX.......@@@XXXX...XXX@@@@......XXXX +#############+#+++#########",
"###########++#+++##########OOOXXX.......@@@XXXX...XXX@@@@......XXXX +##############+#++#########",
"############++#+###########OOOOOOXXX@@@@oooXXXX...XXXoooo@@@XXXOO   +##############++++#########",
"#############+#+###########  OO OXXX@@@@oooXXXX...XXXoooo@@@XXXOOOOO################+++#########",
"###############+###########O  O OXXX@@@@oooXXXX...XXXoooo@@@XXXOOOOO################+++#########",
"############################++  OXXXoooooooooooXXXooooooooooXXXOO####################+#+########",
"#############################+  OXXXoooooooooooXXXooooooooooXXXOO###############################",
"#############################+ O XXXoooooooooooXXXooooooooooXXXOO###############################",
"##############################OO XXXoooooooXXXX O XXXoooooooXXXOO###############################",
"##############################OOOXXXoooooooXXXX   XXXoooooooXXXOO###############################",
"##############################OOOXXXoooooooXXXX  OXXXoooooooXXXOO###############################",
"#################################XXXoooooooXXXX  OXXXoooooooXXX#################################",
"#################################XXX.......XXXX OOXXX.......XXX##########+######################",
"################################+XXX.......XXXXOOOXXX.......XXX#########++######################",
"#########################++#####+XXX.......XXXXOOOXXX.......XXX########++#######################",
"#########################+++###++###XXXXXXXOOOOOOOOOOXXXXXXX#######+##+++#######################",
"#################++#######++###+####XXXXXXXOOOOOOOOOOXXXXXXX#######++#+++#######################",
"#########+++#####++#######+++#++#++#XXXXXXXOOOOOOOOOOXXXXXXX###+++##++++########################",
"###########+++##++#######+#+++++++###############################+++++++########################",
"#############++++########++#+++++#################################++++++########################",
"#############++++#########++++++###################################++++#########################",
"#############++++##########+++#+###################################+############################",
"############################+###################################################################",
"################################################################################################",
"################################################################################################",
"################################################################################################",
"################################################################################################",
"################################################################################################",
"################################################################################################",
"################################################################################################"
};
