/* XPM */
static char *result[] = {
/* columns rows colors chars-per-pixel */
"96 96 12 1 ",
"  c #343C1E",
". c #302732",
"X c #3A3737",
"o c #3A313A",
"O c #444823",
"+ c #6D7E3E",
"@ c #006B46",
"# c #4B444C",
"$ c #B14E45",
"% c #BA6C4C",
"& c #499231",
"* c #8F974A",
/* pixels */
"************************************************************************************************",
"************************************************************************************************",
"************************************************************************************************",
"******************************************************************************+*****************",
"***********************************************************+*****************++*****************",
"****************************************************+******+*****************++*+++*************",
"**********************************************XXX****+****+***************+*++*+++**************",
"**********************************************XXX****++**++***************++++*++***************",
"**********************************************XXX*****++*++****************++++++***************",
"**********************************************XXX******+*++*****************++*+****************",
"******************************************XXXX###XXXX**++++*****************++*+****************",
"******************************************XXXX###XXXX***+***************************************",
"****************+*************************XXXX###XXXX***+***************************************",
"****************++************************XXXX###XXXX*******************************************",
"*****************+************************XXXXoooXXXX*******************************************",
"******************+**++*******************XXXXoooXXXX*******************************************",
"******************++*+********************XXXXoooXXXX*******************************************",
"*******************+*+++******************XXXX...XXXX*******************************************",
"*******************++++*******************XXXX...XXXX*******************************************",
"*******************++++*******************XXXX...XXXX*******************************************",
"******************************************XXXX...XXXX*******************************************",
"**************************************..................****************************************",
"*******************************++*****..................****************************************",
"********************************++***+..................****************************************",
"*************++*****************++**+*..................*+**************************************",
"********++***++******************++...oooooooooooooooooo....****+*******************************",
"*********++**+*******************++...oooooooooooooooooo....***++*******************************",
"**********++++*++*****************+...oooooooooooooooooo....**++********************************",
"***********++**+***************....ooo##################oooo....********************************",
"***********++++****************....ooo##################oooo....********************************",
"************++*****************....ooo##################oooo....********************************",
"*******************************....ooo##################oooo....********************************",
"*******************************....ooo##################oooo....********************************",
"*******************************....ooo##################oooo....********************************",
"*******************************....ooo##################oooo....********************************",
"*******************************....ooo##################oooo....********************************",
"*******************************....ooo....###########...oooo....********************************",
"*******************************....ooo....###########...oooo....********************************",
"*******************************....ooo....###########...oooo....******************+*************",
"***************************XXXXoooo...####....###....###....ooooXXX*******+++****+**************",
"***************************XXXXoooo...####....###....###....ooooXXX*********++***+**************",
"***************************XXXXoooo...####....###....###....ooooXXX**********++*+***************",
"***************************XXXXoooo...####....###....###....ooooXXX**********++*++**************",
"***************************XXXX....###%%%%####...####%%%####....XXX***********++*+**************",
"***************************XXXX....###%%%%####...####%%%####....XXX*****************************",
"**********************+****XXXX....###%%%%####...####%%%####....XXX*****************************",
"*********************++****XXXX....###%%%%####...####%%%####....XXX*****************************",
"*************++*****++*****XXXX....###$$$$####ooo####$$$####....XXX*****************************",
"**************+++**++******XXXX....###$$$$####ooo####$$$####....XXX*****************************",
"***************++**+*******XXXX....###$$$$####ooo####$$$####....XXX*****************************",
"****************++*++*+****XXXX....###oooo###########ooo####....XXX*****************************",
"*****************++++*+****XXXX....###oooo###########ooo####....XXX*****************************",
"******************+++++***OXXXX....###oooo###########ooo####....XXX*****************************",
"*******************+++****OXXXX....###oooo###########ooo####....XXX*****************************",
"**************************O....oooo#########################oooo...*****************************",
"**************************O....oooo#########################oooo...*****************************",
"**************************O....oooo#########################oooo...*****************************",
"************************ooo........###&&&&###########&&&####.......oooo*************************",
"************************ooo........###&&&&###########&&&####.......oooo*************************",
"***********************Oooo........###&&&&###########&&&####.......oooo*************************",
"***********************Oooo........###&&&&###########&&&####.......oooo*************************",
"************+****+*****OOOO....oooo###@@@@###########@@@####oooo...OOO+*************************",
"************++**++*****OOOO....oooo###@@@@###########@@@####oooo...OO +*************************",
"************++**+******OOOO....oooo###@@@@###########@@@####oooo...OO +*********++*****+********",
"*************++*+******OOOO....oooo###@@@@###########@@@####oooo...O  +*********+++***++********",
"*************++*+*****OOooo........###########%%%###########.......oooo**********++++++*********",
"***********+**+++*****OOooo........###########%%%###########.......oooo***********+*+++*********",
"***********++*+++*****OOooo........###########%%%###########.......oooo************+*++*********",
"************++*+******OOOOOXXXX....ooo##################oooo....XXX  OO************++++*********",
"*************+*+******OOOOOXXXX....ooo##################oooo....XXXOOOO*************+++*********",
"***************+******OOOOOXXXX....ooo##################oooo....XXXOOOO*************+++*********",
"***********************OOOOXXXX....ooo##################oooo....XXXOOO***************+*+********",
"***********************OOOOOO  XXXX...oooo...........ooo....XXXXOOOOOO**************************",
"***********************OOOOOO  XXXX...oooo...........ooo....XXXXOOOOOO**************************",
"***********************OOOOOOOOXXXX...oooo...........ooo....XXXXOOOOOO**************************",
"***********************OOOOOOOOXXXX...oooo...........ooo....XXXXOOOOOO**************************",
"***********************OOOOOOOOXXXXoooooooooooXXXoooooooooooXXXXOOOOOO**************************",
"**************************OOOOOXXXXoooooooooooXXXoooooooooooXXXXOOO*****************************",
"**************************OOOOOXXXXoooooooooooXXXoooooooooooXXXXOOO******+**********************",
"**************************OOOOOXXXXoooooooXXXXOOOXXXXoooooooXXXXOOO*****++**********************",
"*************************+ OOOOXXXXoooooooXXXXOOOXXXXoooooooXXXXOOO****++***********************",
"*************************+  OOOXXXXoooooooXXXXOOOXXXXoooooooXXXXOOO+**+++***********************",
"*****************++*******  OOOXXXXoooooooXXXXOOOXXXXoooooooXXXXOOO++*+++***********************",
"*********+++*****++*******   O XXXX.......XXXXOOOXXXX.......XXXX  O*++++************************",
"***********+++**++*******+*++++XXXX.......XXXXOOOXXXX.......XXXX*+++++++************************",
"*************++++********++*+++XXXX.......XXXXOOOXXXX.......XXXX**++++++************************",
"*************++++*********+++++XXXX.......XXXXOOOXXXX.......XXXX***++++*************************",
"*************++++**********+++*+**OXXXXXXXOOOOOOOOOOOXXXXXXX*******+****************************",
"****************************+*****OXXXXXXXOOOOOOOOOOOXXXXXXX************************************",
"**********************************OXXXXXXXOOOOOOOOOOOXXXXXXX************************************",
"************************************************************************************************",
"************************************************************************************************",
"************************************************************************************************",
"************************************************************************************************",
"************************************************************************************************",
"************************************************************************************************"
};
