/* XPM */
static char *result[] = {
/* columns rows colors chars-per-pixel */
"96 96 12 1 ",
"  c #343C1E",
". c #302732",
"X c #3A3737",
"o c #3A313A",
"O c #444823",
"+ c #6D7E3E",
"@ c #006B46",
"# c #4B444C",
"$ c #B14E45",
"% c #BA6C4C",
"& c #499231",
"* c #8F974A",
/* pixels */
"************************************************************************************************",
"************************************************************************************************",
"************************************************************************************************",
"******************************************************************************+*****************",
"***********************************************************+*****************++*****************",
"****************************************************+******+*****************++*+++*************",
"*****************************************************+****+***************+*++*+++**************",
"*****************************************************++**++***************++++*++***************",
"******************************************************++*++****************++++++***************",
"*******************************************************+*++*****************++*+****************",
"*******************************************************++++*****************++*+****************",
"********************************************************+***************************************",
"****************....**********....**********************+***************************************",
"****************....**********....**************************************************************",
"****************....**********....**************************************************************",
"****************....*++*******....**************************************************************",
"*************...####...****...####...***********************************************************",
"*************...####...+***...####...***********************************************************",
"*************...####...****...####...***********************************************************",
"*********....###%%%%###....###%%%%###....*******************************************************",
"*********....###%%%%###....###%%%%###....*******************************************************",
"*********....###%%%%###....###%%%%###....*******************************************************",
"*********....###%%%%###....###%%%%###....*******************************************************",
"*********....###ooooooooooo###$$$$###....*******************************************************",
"*********....###ooooooooooo###$$$$###....****************+**************************************",
"********+....###ooooooooooo###$$$$###....************+***++*****+*******************************",
"*********....ooo###########ooooooo###....************+++**++***++*******************************",
"*********....ooo###########ooooooo###....**************++**+**++********************************",
"*********....ooo###########ooooooo###....***************++*++*++********************************",
"*********....ooo###########ooooooo###....****************+*++++*********************************",
"******...#########################ooo....*********+******++++++*********************************",
"******...#########################ooo....*********+*******++++**********************************",
"******...#########################ooo....*********++*******++***********************************",
"******...#######&&&&###ooooooo#######oooo...*******+++*****+**********************....**********",
"******...#######&&&&###ooooooo#######oooo...*******++*****************************....**********",
"******...#######&&&&###ooooooo#######oooo...********+*****************************....**********",
"******...#######&&&&###ooooooo#######oooo...**************************************....**********",
"******...%%%%###@@@@#####################ooo........................***********...####XXX*******",
"******...%%%%###@@@@#####################ooo........................***********...####XXX*******",
"******...%%%%###@@@@#####################ooo........................******+++**...####XXX*******",
"******...##############ooooooo##############oooooooooooooooooooooooo....****++*...ooooXXX*******",
"******...##############ooooooo##############oooooooooooooooooooooooo....*****++...ooooXXX*******",
"******...##############ooooooo##############oooooooooooooooooooooooo....*****++...ooooXXX*******",
"******...##############ooooooo##############oooooooooooooooooooooooo....******+...ooooXXX*******",
"******...###################################oooooooooo###########ooooooo.......ooo....XXX*******",
"******...###################################oooooooooo###########ooooooo.......ooo....XXX*******",
"******...###################################oooooooooo###########ooooooo.......ooo....XXX*******",
"*********....oooooooooooooo...######################################ooooXXXoooo...XXXX**********",
"*********....oooooooooooooo...######################################ooooXXXoooo...XXXX**********",
"*********....oooooooooooooo...######################################ooooXXXoooo...XXXX**********",
"*************XXXXXXXXXXXXXXooo######################################ooooXXX....XXX**************",
"*************XXXXXXXXXXXXXXooo######################################ooooXXX....XXX**************",
"*************XXXXXXXXXXXXXXooo######################################ooooXXX....XXX**************",
"*************XXXXXXXXXXXXXXooo######################################ooooXXX....XXX**************",
"***********************....ooo######################################ooooXXXXXXX*****************",
"***********************....ooo######################################ooooXXXXXXX*****************",
"***********************....ooo######################################ooooXXXXXXX*****************",
"***************************XXXoooo#######oooooooooooooooooooooooo###ooooXXX*********************",
"***************************XXXoooo#######oooooooooooooooooooooooo###ooooXXX*********************",
"***************************XXXoooo#######oooooooooooooooooooooooo###ooooXXX*********************",
"***************************XXXoooo#######oooooooooooooooooooooooo###ooooXXX*********************",
"************+****+*********...XXXX#######........................###ooooXXX*********************",
"************++**++*********...XXXX#######........................###ooooXXX*********************",
"************++**+**********...XXXX#######........................###ooooXXX*****++*****+********",
"*************++*+**********...XXXX###ooooXXXXXXXXXXXXXXXXXXXXXXXX###ooooXXX*****+++***++********",
"*************++*+**********...XXXX###ooooXXXXXXXXXXXXXXXXXXXXXXXX###ooooXXX******++++++*********",
"***********+**+++**********...XXXX###ooooXXXXXXXXXXXXXXXXXXXXXXXX###ooooXXX*******+*+++*********",
"***********++*+++**********...XXXX###ooooXXXXXXXXXXXXXXXXXXXXXXXX###ooooXXX********+*++*********",
"************++*+***********...XXXX###ooooXXX**+***********...XXXX###ooooXXX********++++*********",
"*************+*+***********...XXXX###ooooXXX**+***********...XXXX###ooooXXX*********+++*********",
"***************+***********...XXXX###ooooXXX**+***********...XXXX###ooooXXX*********+++*********",
"***************************...XXXX###ooooXXX**+***********...XXXX###ooooXXX**********+*+********",
"***************************...XXXX###ooooXXX**+***********...XXXX###ooooXXX*********************",
"***************************...XXXX###ooooXXX**++**********...XXXX###ooooXXX*********************",
"***************************...XXXX###ooooXXXOOO O OOOOOOOO...XXXX###ooooXXX*********************",
"************************OOOOOOXXXXoooooooXXX  O   OOOOOOOOOOOXXXXoooooooXXX*********************",
"************************OOOOOOXXXXoooooooXXXO    OOOOOOOOOOOOXXXXoooooooXXX*********************",
"********************OOOOOOOOOOXXXXoooooooXXXOO   OOOOOOOOOOOOXXXXoooooooXXX*********************",
"*******************OOOOOOOOOOOXXXXXXXXXXXOOOOOO OOOOOOOOOOOOOOOOOXXXXXXXO OO********************",
"*******************OOOOOOOOOOOXXXXXXXXXXXOOOOOOOOOOOOOOOOOOOOOOOOXXXXXXX  OO********************",
"********************OOOOO  OOOXXXXXXXXXXXOOOOOOOOOOOOOOOOOOOOOOOOXXXXXXX OO*********************",
"************************O   OOXXXXXXXXXXXOOOOOOOOOOOOOOOOOOOOOOOOXXXXXXX+***********************",
"*****************++*****OO  OOO OOOOOOOOOOOOOOOOOOOOOOOOOOOOOOOOOOO  O ++***********************",
"*********+++*****++*******+++*++*  OOOOOOOOOOOOOOOOOOOOOOOOOOO*+++**++++************************",
"***********+++**++*******+*+++++++*******************************+++++++************************",
"*************++++********++*+++++*********************************++++++************************",
"*************++++*********++++++***********************************++++*************************",
"*************++++**********+++*+***********************************+****************************",
"****************************+*******************************************************************",
"************************************************************************************************",
"************************************************************************************************",
"************************************************************************************************",
"************************************************************************************************",
"************************************************************************************************",
"************************************************************************************************",
"************************************************************************************************"
};
