/* XPM */
static char *result[] = {
/* columns rows colors chars-per-pixel */
"96 96 12 1 ",
"  c #343C1E",
". c #302732",
"X c #3A3737",
"o c #3A313A",
"O c #444823",
"+ c #6D7E3E",
"@ c #006B46",
"# c #4B444C",
"$ c #B14E45",
"% c #BA6C4C",
"& c #499231",
"* c #8F974A",
/* pixels */
"************************************************************************************************",
"************************************************************************************************",
"************************************************************************************************",
"******************************************************************************+*****************",
"***********************************************************+*****************++*****************",
"****************************************************+******+*****************++*+++*************",
"*****************************************************+****+***************+*++*+++**************",
"*****************************************************++**++***************++++*++***************",
"******************************************************++*++****************++++++***************",
"*******************************************************+*++*****************++*+****************",
"*******************************************************++++*****************++*+****************",
"********************************************************+***************************************",
"****************+***************************************+******...***********...****************",
"****************++*********************************************...***********...****************",
"*****************+*********************************************...***********...****************",
"******************+**++************************************....###....***....###....************",
"******************++*+*************************************....###....***....###....************",
"*******************+*+++***********************************....###....***....###....************",
"*******************++++************************************....###....***....###....************",
"*******************++++*********************************...####%%%####...####%%%####...*********",
"********************************************************...####%%%####...####%%%####...*********",
"********************************************************...####%%%####...####%%%####...*********",
"*******************************++*****+*****************...####$$$####oooooooooo####...*********",
"********************************++***++*****************...####$$$####oooooooooo####...*********",
"*************++*****************++**+***+***************...####$$$####oooooooooo####...*********",
"********++***++******************++*+**++************+**...####$$$####oooooooooo####...*********",
"*********++**+*******************++*+**+*************+++...####ooooooo##########oooo...*********",
"**********++++*++*****************+++*+****************+...####ooooooo##########oooo...*********",
"***********++**+******************++++******************...####ooooooo##########oooo...*********",
"***********++++*****************************************...oooo########################....*****",
"************++************************************+*****...oooo########################....*****",
"**************************************************+*****...oooo########################....*****",
"**************************************************++****...oooo########################....*****",
"**********...**************************************+....ooo#######ooooooo####&&&#######....*****",
"**********...**************************************+....ooo#######ooooooo####&&&#######....*****",
"**********...***************************************....ooo#######ooooooo####&&&#######....*****",
"******XXXX###....**********.........................oooo#####################@@@####%%%....*****",
"******XXXX###....**********.........................oooo#####################@@@####%%%....*****",
"******XXXX###....**********.........................oooo#####################@@@####%%%....*****",
"******XXXX###....**********.........................oooo#####################@@@####%%%....*****",
"******XXXXooo....*******...ooooooooooooooooooooooooo##############ooooooo##############....*****",
"******XXXXooo....*******...ooooooooooooooooooooooooo##############ooooooo##############....*****",
"******XXXXooo....*******...ooooooooooooooooooooooooo##############ooooooo##############....*****",
"******XXXX...oooo.......ooooooo##########ooooooooooo###################################....*****",
"******XXXX...oooo.......ooooooo##########ooooooooooo###################################....*****",
"******XXXX...oooo.......ooooooo##########ooooooooooo###################################....*****",
"******XXXX...oooo.......ooooooo##########ooooooooooo###################################....*****",
"**********XXX....oooXXXXooo#######################################....oooooooooooooo...*********",
"**********XXX....oooXXXXooo#######################################....oooooooooooooo...*********",
"**********XXX....oooXXXXooo#######################################....oooooooooooooo...*********",
"**********XXX....oooXXXXooo#######################################....oooooooooooooo...*********",
"*************XXXX...XXXXooo#######################################ooooXXXXXXXXXXXXXX************",
"*************XXXX...XXXXooo#######################################ooooXXXXXXXXXXXXXX************",
"*************XXXX...XXXXooo#######################################ooooXXXXXXXXXXXXXX************",
"*****************XXXXXXXooo#######################################oooo...***********************",
"*****************XXXXXXXooo#######################################oooo...***********************",
"*****************XXXXXXXooo#######################################oooo...***********************",
"*****************XXXXXXXooo#######################################oooo...***********************",
"********************XXXXooo####ooooooooooooooooooooooooo#######oooXXXX**************************",
"********************XXXXooo####ooooooooooooooooooooooooo#######oooXXXX**************************",
"********************XXXXooo####ooooooooooooooooooooooooo#######oooXXXX**************************",
"************+****+**XXXXooo####.........................#######XXX....+*************************",
"************++**++**XXXXooo####.........................#######XXX....+*************************",
"************++**+***XXXXooo####.........................#######XXX....+*********++*****+********",
"*************++*+***XXXXooo####.........................#######XXX....+*********+++***++********",
"*************++*+***XXXXooo####XXXXXXXXXXXXXXXXXXXXXXXXXooo####XXX....***********++++++*********",
"***********+**+++***XXXXooo####XXXXXXXXXXXXXXXXXXXXXXXXXooo####XXX....************+*+++*********",
"***********++*+++***XXXXooo####XXXXXXXXXXXXXXXXXXXXXXXXXooo####XXX....*************+*++*********",
"************++*+****XXXXooo####XXX....********+*****XXXXooo####XXX....*************++++*********",
"*************+*+****XXXXooo####XXX....********+*****XXXXooo####XXX....**************+++*********",
"***************+****XXXXooo####XXX....********+*****XXXXooo####XXX....**************+++*********",
"********************XXXXooo####XXX....********+*****XXXXooo####XXX....***************+*+********",
"********************XXXXooo####XXX....********+*****XXXXooo####XXX....**************************",
"********************XXXXooo####XXX....OOOOOOOO  OOOOXXXXooo####XXX....**************************",
"********************XXXXooo####XXX....OOOOOOOOO O OOXXXXooo####XXX....**************************",
"********************XXXXoooooooXXXOOOOOOO     O   OOXXXXoooooooXXXOOOO**************************",
"*******************OXXXXoooooooXXXOOOOOOOOOOO    OOOXXXXoooooooXXXOOOOOOOO**********************",
"******************OOXXXXoooooooXXXOOOOOOOOOOOO   OOOXXXXoooooooXXXOOOOOOOOO*********************",
"******************OOXXXXoooooooXXXOOOOOOOOOOOOO OOOOXXXXoooooooXXXOOOOOOO O*********************",
"*******************OOOOOXXXXXXXO OOOOOOOOOOOOOOOOOOOOOOOXXXXXXXXXXOOOOOO  **********************",
"***********************OXXXXXXXO OOOOOOOOOOOOOOOOOOOOOOOXXXXXXXXXXOOOO*++***********************",
"***********************OXXXXXXX  OOOOOOOOOOOOOOOOOOOOOOOXXXXXXXXXXO OO+++***********************",
"*****************++*******++***+OOOOOOOOOOOOOOOOOOOOOOOOOOOOO******++*+++***********************",
"*********+++*****++*******+++*++*++****************************+++**++++************************",
"***********+++**++*******+*+++++++*******************************+++++++************************",
"*************++++********++*+++++*********************************++++++************************",
"*************++++*********++++++***********************************++++*************************",
"*************++++**********+++*+***********************************+****************************",
"****************************+*******************************************************************",
"************************************************************************************************",
"************************************************************************************************",
"************************************************************************************************",
"************************************************************************************************",
"************************************************************************************************",
"************************************************************************************************",
"************************************************************************************************"
};
