/* XPM */
static char *d14dff587fbc45b3fc27f412f3f9ace36aoLewl7wXFjOvg4[] = {
/* columns rows colors chars-per-pixel */
"96 96 13 1 ",
"  c #161616",
". c #343435",
"X c #3E3E3F",
"o c #452F1A",
"O c #4A381E",
"+ c #533F21",
"@ c #5F4226",
"# c #694D2D",
"$ c #705535",
"% c #506120",
"& c #6D7E3E",
"* c #676767",
"= c #8F974A",
/* pixels */
"================================================================================================",
"================================================================================================",
"================================================================================================",
"==============================================================================&=================",
"===========================================================&=================&&=================",
"====================================================&======&=================&&=&&&=============",
"=====================================================&====&===============&=&&=&&&==============",
"=====================================================&&==&&===============&&&&=&&===============",
"=============                                                                         ==========",
"=============                                                                         ==========",
"=============  $$$$$$$oooo$$$$$$$$oooo$$$$$$$$$oooo$$$$$$$$oooo$$$$$$$$oooo$$$$$$$$$  ==========",
"=============  $$$$$$$oooo$$$$$$$$oooo$$$$$$$$$oooo$$$$$$$$oooo$$$$$$$$oooo$$$$$$$$$  ==========",
"=============  $$$$$$$oooo$$$$$$$$oooo$$$$$$$$$oooo$$$$$$$$oooo$$$$$$$$oooo$$$$$$$$$  ==========",
"=============  $$$$$$$oooo$$$$$$$$oooo$$$$$$$$$oooo$$$$$$$$oooo$$$$$$$$oooo$$$$$$$$$  ==========",
"=============  $$$$$$$oooo$$$$$$$$oooo$$$$$$$$$oooo$$$$$$$$oooo$$$$$$$$oooo$$$$$$$$$  ==========",
"=============  $$$$$$$oooo$$$$$$$$ooo+$$$$$$$$$oooo$$$$$$$$oooo$$$$$$$$ooo+$$$$$$$$$  ==========",
"=============  $$$$$$$oo++$$$$$$$$ooo+$$$$$$$$$oo++$$$$$$$$oo++$$$$$$$$ooo+$$$$$$$$$  ==========",
"=============  $$$$$$$oo++$$$$$$$$ooo+$$$$$$$$$oo++$$$$$$$$oo++$$$$$$$$ooo+$$$$$$$$$  ==========",
"=============  $$$$$$$oo++$$$$$$$$ooo+$$$$$$$$$oo++$$$$$$$$oo++$$$$$$$$ooo+$$$$$$$$$  ==========",
"=============  $$$$$$$++++$$$$$$$$oo++$$$$$$$$$++++$$$$$$$$++++$$$$$$$$oo++$$$$$$$$$  ==========",
"=============  $$$$$$$++++$$$$$$$$oo++$$$$$$$$$++++$$$$$$$$++++$$$$$$$$oo++$$$$$$$$$  ==========",
"=============  $$$$$$$++++$$$$$$$$oo++$$$$$$$$$++++$$$$$$$$++++$$$$$$$$oo++$$$$$$$$$  ==========",
"=============  $$$$$$$++++$$$$$$$$++++$$$$$$$$$++++$$$$$$$$++++$$$$$$$$++++$$$$$$$$$  ==========",
"=============  $$$$$$$++++$$$$$$$$++++$$$$$$$$$++++$$$$$$$$++++$$$$$$$$++++$$$$$$$$$  ==========",
"=============  $$$$$$$++++$$$$$$$$++++$$$$$$$$$++++$$$$$$$$++++$$$$$$$$++++$$$$$$$$$  ==========",
"========&&===  $$$$$$$++++$$$$$$$$++++$$$$$$$$$++++$$$$$$$$++++$$$$$$$$++++$$$$$$$$$  ==========",
"=========&&==  ..XXXXXXXX*****XXXX..++.....XXXXXX****XX......XXXXXXXXXX*******XXXX..  ==========",
"==========&&&  ....XXXXXX*****XXXX.........XXXX******XX......XXXXXXXXXX********XXX..  ==========",
"===========&&  .....XXXX****XXXXXXXX.......XXXX*****XXXX....XXXXXXXXXXXXX******XXX..  ==========",
"===========&&  .....XXXX****XXXXXXXX...XXXXXXXXX***XXXXXXXXXXXXXXXXXXXXXX****XXXXX..  ==========",
"============&  @@@@@@@oooo@@@@@@@@++++@@@@@@@@@oooo@@@@@@@@oooo@@@@@@@@oooo@@@@@@@@@  ==========",
"=============  @@@@@@@oooo@@@@@@@@++++@@@@@@@@@oooo@@@@@@@@oooo@@@@@@@@oooo@@@@@@@@@  ==========",
"=============  @@@@@@@+ooo@@@@@@@@++++@@@@@@@@@+ooo@@@@@@@@ooo+@@@@@@@@oooo@@@@@@@@@  ==========",
"=============  $$$$$$$++oo$$$$$$$$++++$$$$$$$$$++oo$$$$$$$$+oo+$$$$$$$$oooo$$$$$$$$$  ==========",
"=============  $$$$$$$++oo$$$$$$$$++++$$$$$$$$$++oo$$$$$$$$+oo+$$$$$$$$+ooo$$$$$$$$$  ==========",
"=============  $$$$$$$++++$$$$$$$$++++$$$$$$$$$++++$$$$$$$$++++$$$$$$$$+ooo$$$$$$$$$  ==========",
"=============  $$$$$$$++++$$$$$$$$++++$$$$$$$$$++++$$$$$$$$++++$$$$$$$$+ooo$$$$$$$$$  ==========",
"=============  $$$$$$$++++$$$$$$$$++oo$$$$$$$$$++++$$$$$$$$++++$$$$$$$$+ooo$$$$$$$$$  ==========",
"=============  $$$$$$$++++$$$$$$$$++oo$$$$$$$$$++++$$$$$$$$++++$$$$$$$$+ooo$$$$$$$$$  ==========",
"=============  $$$$$$$++++$$$$$$$$++oo$$$$$$$$$++++$$$$$$$$++++$$$$$$$$+ooo$$$$$$$$$  ==========",
"=============  $$$$$$$++++$$$$$$$$+ooo$$$$$$$$$++++$$$$$$$$++++$$$$$$$$++oo$$$$$$$$$  ==========",
"=============  $$$$$$$++++$$$$$$$$+ooo$$$$$$$$$++++$$$$$$$$++++$$$$$$$$++oo$$$$$$$$$  ==========",
"=============  $$$$$$$++++$$$$$$$$+ooo$$$$$$$$$++++$$$$$$$$++++$$$$$$$$++oo$$$$$$$$$  ==========",
"=============  $$$$$$$++++$$$$$$$$+ooo$$$$$$$$$++++$$$$$$$$++++$$$$$$$$++++$$$$$$$$$  ==========",
"=============  $$$$$$$++++$$$$$$$$+ooo$$$$$$$$$++++$$$$$$$$++++$$$$$$$$++++$$$$$$$$$  ==========",
"=============  $$$$$$$+oo+$$$$$$$$+ooo$$$$$$$$$+oo+$$$$$$$$++oo$$$$$$$$++++$$$$$$$$$  ==========",
"=============  $$$$$$$+oo+$$$$$$$$oooo$$$$$$$$$+oo+$$$$$$$$++oo$$$$$$$$++++$$$$$$$$$  ==========",
"=============  $$$$$$$ooo+$$$$$$$$oooo$$$$$$$$$ooo+$$$$$$$$+ooo$$$$$$$$++++$$$$$$$$$  ==========",
"=============  $$$$$$$oooo$$$$$$$$oooo$$$$$$$$$oooo$$$$$$$$oooo$$$$$$$$++++$$$$$$$$$  ==========",
"=============  $$$$$$$oooo$$$$$$$$oooo$$$$$$$$$oooo$$$$$$$$oooo$$$$$$$$++++$$$$$$$$$  ==========",
"=============  ...XXXXXXX....XXXXXXX****XXXXXXXXXX.........XXXX****XXXXXXXXXXXXXXXXX  ==========",
"=============  ...XXXXXXX....XXXXXXX******XXXXXXXX.........X*******XXXXX******XXXX..  ==========",
"=============  ..XXXXXXX.......XXXXX******XXXXXXX........XXX******XXXXXX*******XXX..  ==========",
"=============  ..XXXXXXX.......XXXXX***XXXXXXXXXX........XXXXX****XXXXXXX******XXX..  ==========",
"=============  @@@@@@@++++@@@@@@@@++++@@@@@@@@@++++@@@@@@@@@++++@@@@@@@@++++@@@@@@@@  ==========",
"=============  @@@@@@@++++@@@@@@@@+oo+@@@@@@@@@++++@@@@@@@@@++++@@@@@@@@+oo+@@@@@@@@  ==========",
"=============  @@@@@@@++++$$$$$$$$+oo+$$$$$$$$$++++$$$$$$$$$++++$$$$$$$$+oo+$$$$$$$$  ==========",
"=============  $$$$$$$++++$$$$$$$$+oo+$$$$$$$$$++++$$$$$$$$$++++$$$$$$$$+oo+$$$$$$$$  ==========",
"=============  $$$$$$$++++$$$$$$$$+oo+$$$$$$$$$++++$$$$$$$$$++++$$$$$$$$+oo+$$$$$$$$  ==========",
"=============  $$$$$$$++++$$$$$$$$+oo+$$$$$$$$$++++$$$$$$$$$++++$$$$$$$$+oo+$$$$$$$$  ==========",
"=============  $$$$$$$++oo$$$$$$$$+oo+$$$$$$$$$++oo$$$$$$$$$++oo$$$$$$$$+oo+$$$$$$$$  ==========",
"============&  $$$$$$$+ooo$$$$$$$$ooo+$$$$$$$$$+ooo$$$$$$$$$+ooo$$$$$$$$ooo+$$$$$$$$  ==========",
"============&  $$$$$$$+ooo$$$$$$$$ooo+$$$$$$$$$+ooo$$$$$$$$$+ooo$$$$$$$$ooo+$$$$$$$$  ==========",
"============&  $$$$$$$+ooo$$$$$$$$ooo+$$$$$$$$$+ooo$$$$$$$$$+ooo$$$$$$$$ooo+$$$$$$$$  =&========",
"=============  $$$$$$$oooo$$$$$$$$ooo+$$$$$$$$$oooo$$$$$$$$$oooo$$$$$$$$ooo+$$$$$$$$  &&========",
"=============  $$$$$$$oooo$$$$$$$$ooo+$$$$$$$$$oooo$$$$$$$$$oooo$$$$$$$$ooo+$$$$$$$$  &=========",
"===========&=  $$$$$$$oooo$$$$$$$$ooo+$$$$$$$$$oooo$$$$$$$$$oooo$$$$$$$$ooo+$$$$$$$$  &=========",
"===========&&  $$$$$$$oooo$$$$$$$$+oo+$$$$$$$$$oooo$$$$$$$$$oooo$$$$$$$$+oo+$$$$$$$$  &=========",
"============&                                                                         &=========",
"=============                                                                         &=========",
"=============  ######++oooo#######OOOO######++++oooo#####++++#####OOOO####OOOO######  &=========",
"=========%===  ######++oooo#######OOOO######++++oooo#####++++#####OOOO####OOOO######  =&========",
"=========%%==  ######++oooo#######OOOO######++++oooo#####++++#####OOOO####OOOO######  ==========",
"=========%%%=  ######++oooo#######OOOO######++++oooo#####++++#####OOOO####OOOO######  ==========",
"=========%%%=  ######++oooo#######OOOO######++++oooo#####++OO#####OOOO####OOOO######  ==========",
"==========%%%  ######++oooo#######OOOO######++++oooo#####++OO#####OOOO####OOOO####@@  ==========",
"==========%%%% @@####++oooo#######OOOO######++++oooo#####++OO#####OOOO####OOOO@@@#@@  ==========",
"==========%%%% @@####++oooo@@#####OOOO####@@++++++oo###@@OOOO@@@@@OOOO#@@#OOoo@@@#@@  ==========",
"===========%%% @@##@@++oo++@@##@@#ooOO@@@@@@++++++oo@@@@@OOOO@@@@@ooOO#@@@@@oo@@@@@@  ==========",
"===========%%%%@@@@@@++++++@@##@@#oooo@@@@@@++++++++@@@@@OOOO@@@@@ooOO@@@@@@oo@@@@@@  ==========",
"===========%%%%%@@@@@++++++@@@@@@@oooo@@@@@@++++++++@@@@@OOOO@@@@@oooo@@@@@@oo@@@@@@  ==%%======",
"===========%%%%%@@@@@++++++@@@@@@@oooo@@@@@@++++++++@@@@@OOOO@@@@@oooo@@@@@@oo@@@@@@  =%%=======",
"============%%%%@@@@%++++++@@@@@@@%%oo@@@@@@++++++++@@@@@OOOO@@@@@oooo@@@@@@oo@@@%@@  %%========",
"========%&&&%%%%%@@@%++++++@@@@@@@o%oo@%@@@@++++++++@@@@@OOOO@@@@@oooo@@@@@@oo@@@%@@ %%%========",
"========%%=&%%%%%%@%%++++++@@@@@@@o%%o%%@@@@++++++++@@@@@OOOO@@@@%o%oo@@@@%@oo@@%%@@%%%=========",
"=========%%=%%%%%%@%%++++++@@@@@@@oo%%%%@@@@++++++++@@@@@OO%O@@@@%%%%O@@@@%#oo@%%%@%%%%=========",
"==========%%=%%%%%%%%%              %%%%                   %%    %%%%     %    %%%%%%%%%========",
"===========%%%%%%%%%%%               %%%%                   %%   %%%%     %    %%%%%%%%=========",
"============%%%%%=%%%=======&========%=%%====================%====%%%=====%%%%==%%%==%==========",
"=============%%=%===============================================================================",
"==============%=%===============================================================================",
"==============%=%===============================================================================",
"================================================================================================",
"================================================================================================",
"================================================================================================",
"================================================================================================"
};
