/* XPM */
static char *f8c54fd49a25494c9b1cd6817b419e74Goh0NqokaQ1rfxg8[] = {
/* columns rows colors chars-per-pixel */
"96 96 18 1 ",
"  c black",
". c #161616",
"X c #291404",
"o c #311A09",
"O c #343435",
"+ c #3E3E3F",
"@ c #452A17",
"# c #452F1A",
"$ c #4A381E",
"% c #533F21",
"& c #4D4518",
"* c #5F4226",
"= c #694D2D",
"- c #705535",
"; c #506120",
": c #6D7E3E",
"> c #676767",
", c #8F974A",
/* pixels */
",,,,,,,,,,,,,,,,,,,,,,,,,,,,,,,,,,,,,,,,,,,,,,,,,,,,,,,,,,,,,,,,,,,,,,,,,,,,,,,,,,,,,,,,,,,,,,,,",
",,,,,,,,,,,,,,,,,,,,,,,,,,,,,,,,,,,,,,,,,,,,,,,,,,,,,,,,,,,,,,,,,,,,,,,,,,,,,,,,,,,,,,,,,,,,,,,,",
",,,,,,,,,,,,,,,,,,,,,,,,,,,,,,,,,,,,,,,,,,,,,,,,,,,,,,,,,,,,,,,,,,,,,,,,,,,,,,,,,,,,,,,,,,,,,,,,",
",,,,,,,,,,,,,,,,,,,,,,,,,,,,,,,,,,,,,,,,,,,,,,,,,,,,,,,,,,,,,,,,,,,,,,,,,,,,,,:,,,,,,,,,,,,,,,,,",
",,,,,,,,,,,,,,,,,,,,,,,,,,,,,,,,,,,,,,,,,,,,,,,,,,,,,,,,,,,:,,,,,,,,,,,,,,,,,::,,,,,,,,,,,,,,,,,",
",,,,,,,,,,,,,,,,,,,,,,,,,,,,,,,,,,,,,,,,,,,,,,,,,,,,:,,,,,,:,,,,,,,,,,,,,,,,,::,:::,,,,,,,,,,,,,",
",,,,,,,,,,,,,,,,,,,,,,,,,,,,,,,,,,,,,,,,,,,,,,,,,,,,,:,,,,:,,,,,,,,,,,,,,,:,::,:::,,,,,,,,,,,,,,",
"..............................................................,,,,,,,,,,,,::::,::,,,,,,,,,,,,,,,",
"..............................................................,,,,,,,,,,,,,::::::,,,,,,,,,,,,,,,",
"..------###-------###--------###-------###-------####-------..,,,,,,,,,,,,,,::,:,,,,,,,,,,,,,,,,",
"..------###-------###--------###-------###-------####-------..,,,,,,,,,,,,,,::,:,,,,,,,,,,,,,,,,",
"..------###-------###--------###-------###-------####-------..,,,,,,,,,,,,,,,,,,,,,,,,,,,,,,,,,,",
"..------###-------###--------###-------###-------####-------..,,,,,,,,,,,,,,,,,,,,,,,,,,,,,,,,,,",
"..------###-------###--------###-------###-------####-------..,,,,,,,,,,,,,,,,,,,,,,,,,,,,,,,,,,",
"..------###-------##%--------###-------###-------###%-------..,,,,,,,,,,,,,,,,,,,,,,,,,,,,,,,,,,",
"..------#%%-------##%--------##%-------##%-------###%-------..,,,,,,,,,,,,,,,,,,,,,,,,,,,,,,,,,,",
"..------#%%-------##%--------##%-------##%-------###%-------..,,,,,,,,,,,,,,,,,,,,,,,,,,,,,,,,,,",
"..------#%%-------##%--------##%-------##%-------###%-------..,,,,,,,,,,,,,,,,,,,,,,,,,,,,,,,,,,",
"..------%%%-------##%--------%%%-------%%%-------##%%-------..,,,,,,,,,,,,,,,,,,,,,,,,,,,,,,,,,,",
"..------%%%-------##%--------%%%-------%%%-------##%%-------..,,,,,,,,,,,,,,,,,,,,,,,,,,,,,,,,,,",
"..------%%%-------##%--------%%%-------%%%-------##%%-------..,;;,,,,,,,,,,,,,,,,,,,,,,,,,,,,,,,",
"..------%%%-------%%%--------%%%-------%%%-------%%%%-------..,;,,,,,,,,,,,,,,,,,,,,,,,,,,,,,,,,",
"..------%%%-------%%%--------%%%-------%%%-------%%%%-------..;;,,,,,,,,,,,,,,,,,,,,,,,,,,,,,,,,",
"..------%%%-------%%%--------%%%-------%%%-------%%%%-------..;;;,,,,,,,,,,,,,,,,,,,,,,,,,,,,,,,",
"..------%%%-------%%%--------%%%-------%%%-------%%%%-------..;                      ,,,,,,,,,,,",
"..O+++++++>>>>++++OO%OOOO++++++>>>++OOOOO++++++++>>>>>>++++O..                       ,,,,,,,,,,,",
"..OOO+++++>>>>++++OOOOOOO++++>>>>>++OOOOO++++++++>>>>>>>+++O..@@@@@@@@@@@@@@@@@@@@@  ,,,,,,,,,,,",
"..OOOO+++>>>>+++++++OOOOO++++>>>>++++OOO+++++++++++>>>>>+++O..@@@@@@@@@@@@@@@@@@@@@  ,,,,,,,,,,,",
"..OOOO+++>>>>+++++++OO++++++++>>+++++++++++++++++++>>>+++++O..@@@@@@@@@@@@@@@@@@@@@  ,,,,,,,,,,,",
"..******###*******%%%********###*******###*******####*******..@@@@@@@@@@@@@@@@@@@@@  ,,,,,,,,,,,",
"..******###*******%%%********###*******###*******####*******..@@@@@@@@@@@@@@@@@@@@@  ,,,,,,,,,,,",
"..******###*******%%%********%##*******###*******####*******..@@@@@@@@@@@@@@@@@@@@@  ,,,,,,,,,,,",
"..------%##-------%%%--------%%#-------%##-------####-------..@@@@@@@@@@@@@@@@@@@@@  ,,,,,,,,,,,",
"..------%##-------%%%--------%%#-------%##-------%###-------..@@@@@@@@@@@@@@@@@@@@@  ,,,,,,,,,,,",
"..------%%%-------%%%--------%%%-------%%%-------%###-------..@@@@@@@@@@@@@@@@@@@@@  ,,,,,,,,,,,",
"..------%%%-------%%%--------%%%-------%%%-------%###-------..o@@@@@@@@@@@@@@@@@@@o  ,,,,,,,,,,,",
"..------%%%-------%%#--------%%%-------%%%-------%###-------..o@@@@@@@@@@@@@@@@@@@o  ,,,,,,,,,,,",
"..------%%%-------%%#--------%%%-------%%%-------%###-------..o@@@@@@@@@@@@@@@@@@oo  ,,,,,,,,,,,",
"..------%%%-------%%#--------%%%-------%%%-------%###-------..oo@@@@@o@@@@@@@@@@@oo  ,,,,,,,,,,,",
"..------%%%-------%##--------%%%-------%%%-------%%##-------..oo@@@@@oo@@@@o@@@@@oo  ,,,,,,,,,,,",
"..------%%%-------%##--------%%%-------%%%-------%%##-------..oo@@@@@oo@@@@o@@@@@oo  ,,,,,,,,,,,",
"..------%%%-------%##--------%%%-------%%%-------%%##-------..ooo@@@@oo@@@@oo@@@@oo  ,,,,,,,,,,,",
"..------%%%-------%##--------%%%-------%%%-------%%%%-------..@oo@@@@oo@@@@oo@@@@oo  ,,,,,,,,,,,",
"..------%%%-------%##--------%%%-------%%%-------%%%%-------..ooo@@@@oo@@@@oo@@@@oo  ,,,,,,,,,,,",
"..------##%-------%##--------%#%-------%%#-------%%%%-------..ooo@@@ooo@@@@ooo@@@oo  ,,,,,,,,,,,",
"..------##%-------###--------%#%-------%%#-------%%%%-------..ooo@@@ooo@@@oooo&@ooo  ,,,,,,,,,,,",
"..------##%-------###--------##%-------%##-------%%%%-------..oooooooooo@ooooo&&ooo  ,,,,,,,,,,,",
"..------###-------###--------###-------###-------%%%%-------..oooooooooooooooo&&oo&  ,,,,,,,,,,,",
"..------###-------###--------###-------###-------%%%%-------..ooooooooooooooooo&&o&  ,,,,,,,,,,,",
"..OO++++++OOOO++++++>>>++++++++OOOOOOOO+++>>>>++++++++++++++..                 &&&&  ,,,,,,,,,,,",
"..OO++++++OOOO++++++>>>>>++++++OOOOOOOO+>>>>>>++++>>>>>++++O..                 &&&   ,,,,,,,,,,,",
"..O++++++OOOOOO+++++>>>>>++++++OOOOOO+++>>>>>+++++>>>>>>+++O..XXXXXXXXXXXXXXXXX&&XX  ,,,,,,,,,,,",
"..O++++++OOOOOO+++++>>+++++++++OOOOOO+++++>>>++++++>>>>>+++O..XXXXXXXXXXXXXXXXXXXXX  ,,,,,,,,,,,",
"..******%%%*******%%%********%%%********%%%*******%%%%******..XXXXXXoooooooXXXXXXXX  ,,,,,,,,,,,",
"..******%%%*******%#%********%%%********%%%*******%##%******..ooooooooooooooXXXXXXX  ,,,,,,,,,,,",
"..******%%%-------%#%--------%%%--------%%%-------%##%------..oooooooooooooooooXXXX  ,,,,,,,,,,,",
"..------%%%-------%#%--------%%%--------%%%-------%##%------..ooooooooooooooooooXXX  ,,,,,,,,,,,",
"..------%%%-------%#%--------%%%--------%%%-------%##%------..ooooooooooooooooooXXX  ,,,,,,,,,,,",
"..------%%%-------%#%--------%%%--------%%%-------%##%------..ooooooooooooooooooXXX  ,,,,,,,,,,,",
"..------%##-------%#%--------%%#--------%%#-------%##%------..ooooooooooooooooooXXX  ,,,,,,,,,,,",
"..------###-------##%--------%##--------%##-------###%------..ooooooooooooooooooXXX  ,,,,,,,,,,,",
"..------###-------##%--------%##--------%##-------###%------..ooooooooooooooooooXXX  ,,,,,,,,,,,",
"..------###-------##%--------%##--------%##-------###%------..ooooooooooooooooooXXX  ,,,,,,,,,,,",
"..------###-------##%--------###--------###-------###%------..ooooooooooooooooooXXX  ,,:,,,,,,,,",
"..------###-------##%--------###--------###-------###%------..ooooooooooooooooooXXX  ,::,,,,,,,,",
"..------###-------##%--------###--------###-------###%------..ooooooooooooooooooXXX  ::,,,,,,,,,",
"..------###-------%#%--------###--------###-------%##%------..ooooooooooooooooooXXX  ::,,,,,,,,,",
"..............................................................ooooooooooooooooooXXX  ::,,,,,,,,,",
"..............................................................ooooooooooooooooooXXX  ::,,,,,,,,,",
"..=====%####======$$$=====%%%%###====%%%%====$$$====$$$=====..ooooooooooooooooooXXX  ::,,,,,,,,,",
"..=====%####======$$$=====%%%%###====%%%%====$$$====$$$=====..oooooooooooooooooooXX  ::,,,,,,,,,",
"..=====%####======$$$=====%%%%###====%%%%====$$$====$$$=====..oooooooooooooooooooXX  :,:,,,,,,,,",
"..=====%####======$$$=====%%%%###====%%%%====$$$====$$$=====..oooooooooooooooooooXX  ,,,,,,,,,,,",
"..=====%####======$$$=====%%%%###====%%$$====$$$====$$$=====..oooooooooooooooooooXX  ,,,,,,,,,,,",
"..=====%####======$$$=====%%%%###====%%$$====$$$====$$$====*..oooooooooooooooooooXX  ,,,,,,,,,,,",
"..*====%####======$$$=====%%%%###====%%$$====$$$====$$$***=*..oooooooooooooooooooXX  ,,,,,,,,,,,",
"..*====%####**====$$$====*%%%%%##===*$$$$****$$$=**=$$#***=*..ooooooooooooooooooooX  ,,,,,,,,,,,",
"..*==**%##%%**=**=##;;****%%%%%##****$$$$****##$=*****#*****..ooooooooooooooooooooX  ,,,,,,,,,,,",
"..*****%%%%%**=**=##;;****%%%%%%%****$$$$****##$******#*****..ooooooooooooooooooooX  ,,,,,,,,,,,",
"..*****%%%%%******###;****%%%%%%%****$$$$****###******#;;***..ooooooooooooooooooooX  ,,,,,,,,,,,",
"..*;***%%%%%******###;;***%%%%%%%****$$$$****###******#;;***..oo;oooooooooooooooooX  ,,,,,,,,,,,",
"..;;***%%%%%******###;;***%%%%%%%****$$$$****###******#*;;**..oo;oooooooooooooooooX  ,,,,,,,,,,,",
".;;****%%;%%******###*;;**%%%%%%%****$$$$****###******#**;;*..o;;oooooooooooooooooX  ,,,,,,,,,,,",
".;;****%;;%%******###*;;**%;%%%%%****$$$$****###******#***;;;.;;;                    ,,,,,,,,,,,",
";;*****%;;%%******###*;;**%;%%%%%****$$;$****#;$*****=#****;.;;;;                    ,,,,,,,,,,,",
";;......;..............;;..;............;;;;;;...........;..;;;;,,::::::,,,,,,,,,,,,,,,,,,,,,,,,",
";;;....;;..............;;;;;.............;;;;...........;;;;;;;;,,,::::,,,,,,,,,,,,,,,,,,,,,,,,,",
";,,,,,,;;;,,,::::,,,,,,;;;;;;:,:,,,,,,,,,;;;;,,,,,,,,,,,,;;;;;;,,,,:,,,,,,,,,,,,,,,,,,,,,,,,,,,,",
",,,,,,,,,,,,,,,,,,,,,,,,;;;,:,,,,,,,,,,,,,;;,,,,,,,,,,,,,;;,;;;,,,,,,,,,,,,,,,,,,,,,,,,,,,,,,,,,",
",,,,,,,,,,,,,,,,,,,,,,,,;;;,,,,,,,,,,,,,,,,,,,,,,,,,,,,,,,,,,,,,,,,,,,,,,,,,,,,,,,,,,,,,,,,,,,,,",
",,,,,,,,,,,,,,,,,,,,,,,,,,,,,,,,,,,,,,,,,,,,,,,,,,,,,,,,,,,,,,,,,,,,,,,,,,,,,,,,,,,,,,,,,,,,,,,,",
",,,,,,,,,,,,,,,,,,,,,,,,,,,,,,,,,,,,,,,,,,,,,,,,,,,,,,,,,,,,,,,,,,,,,,,,,,,,,,,,,,,,,,,,,,,,,,,,",
",,,,,,,,,,,,,,,,,,,,,,,,,,,,,,,,,,,,,,,,,,,,,,,,,,,,,,,,,,,,,,,,,,,,,,,,,,,,,,,,,,,,,,,,,,,,,,,,",
",,,,,,,,,,,,,,,,,,,,,,,,,,,,,,,,,,,,,,,,,,,,,,,,,,,,,,,,,,,,,,,,,,,,,,,,,,,,,,,,,,,,,,,,,,,,,,,,",
",,,,,,,,,,,,,,,,,,,,,,,,,,,,,,,,,,,,,,,,,,,,,,,,,,,,,,,,,,,,,,,,,,,,,,,,,,,,,,,,,,,,,,,,,,,,,,,,",
",,,,,,,,,,,,,,,,,,,,,,,,,,,,,,,,,,,,,,,,,,,,,,,,,,,,,,,,,,,,,,,,,,,,,,,,,,,,,,,,,,,,,,,,,,,,,,,,"
};
