/* XPM */
static char *_066a7bde4ac4954a50c9b57febf47cdfjKxxQtivbZs2w8g[] = {
/* columns rows colors chars-per-pixel */
"96 96 62 1 ",
"  c #343C1E",
". c #444823",
"X c #6D7E3E",
"o c #7F4F49",
"O c #675C4A",
"+ c #7E5049",
"@ c #6E6452",
"# c #7C6E55",
"$ c #864F49",
"% c #884F49",
"& c #8C4E4A",
"* c #85534B",
"= c #83544D",
"- c #84544E",
"; c #8B524D",
": c #8D534D",
"> c #8A554F",
", c #8B5751",
"< c #8C5752",
"1 c #865B52",
"2 c #895A53",
"3 c #8D5853",
"4 c #885C53",
"5 c #8F5854",
"6 c #8B5E54",
"7 c #8C5F57",
"8 c #8C5F58",
"9 c #925B53",
"0 c #915D53",
"q c #925B54",
"w c #905F56",
"e c #975E57",
"r c #9A5A54",
"t c #995D56",
"y c #935F59",
"u c #945E5A",
"i c #8B6057",
"p c #8E6059",
"a c #8F685D",
"s c #916157",
"d c #90615A",
"f c #94625A",
"g c #90655A",
"h c #97645A",
"j c #95635C",
"k c #93675F",
"l c #96645D",
"z c #986158",
"x c #9C625A",
"c c #99665F",
"v c #936A5F",
"b c #96685D",
"n c #99685F",
"m c #9A6660",
"M c #9E6760",
"N c #956A60",
"B c #956C60",
"V c #9A6860",
"C c #8F974A",
"Z c #B19D7B",
"A c #D5CBBB",
"S c #F1E5D1",
/* pixels */
"CCCCCCCCCCCCCCCCCCCCCCCCCCCCCCCCCCCCCCCCCCCCCCCCCCCCCCCCCCCCCCCCCCCCCCCCCCCCCCCCCCCCCCCCCCCCCCCC",
"CCCCCCCCCCCCCCCCCCCCCCCCCCCCCCCCCCCCCCCCCCCCCCCCCCCCCCCCCCCCCCCCCCCCCCCCCCCCCCCCCCCCCCCCCCCCCCCC",
"CCCCCCCCCCCCCCCCCCCCCCCCCCCCCCCCCCCCCCCCCCCCCCCCCCCCCCCCCCCCCCCCCCCCCCCCCCCCCCCCCCCCCCCCCCCCCCCC",
"CCCCCCCCCCCCCCCCCCCCCCCCCCCCCCCCCCCCCCCCCCCCCCCCCCCCCCCCCCCCCCCCCCCCCCCCCCCCCCXCCCCCCCCCCCCCCCCC",
"CCCCCCCCCCCCCCCCCCCCCCCCCCCCCCCCCCCCCCCCCCCCCCCCCCCCCCCCCCCXCCCCCCCCCCCCCCCCCXXCCCCCCCCCCCCCCCCC",
"CCCCCCCCCCCCCCCCCCCCCCCCCCCCCCCCCCCCCCCCCCCCCCCCCCCCXCCCCCCXCCCCCCCCCCCCCCCCCXXCXXXCCCCCCCCCCCCC",
"CCCCCCCCCCCCCCCCCCCCCCCCCCCCCCCCCCCCCCCCCCCCCCCCCCCCCXCCCCXCCCCCCCCCCCCCCCXCXXCXXXCCCCCCCCCCCCCC",
"CCCCCCCCCCCCCCCCCCCCCCCCCCCCCCCCCCCCCCCCCCCCCCCCCCCCCXXCCXXCCCCCCCCCCCCCCCXXXXCXXCCCCCCCCCCCCCCC",
"CCCCCCCCCCCCCCCCCCCCCCCCCCCCCCCCCCCCCCCCCCCCCCCCCCCCCCXXCXXCCCCCCCCCCCCCCCCXXXXXXCCCCCCCCCCCCCCC",
"CCCCCCCCCCCCCCCCCCCCCCCCCCCCCCCCCCCCCCCCCCCCCCCCCCCCCCCXCXXCCCCCCCCCCCCCCCCCXXCXCCCCCCCCCCCCCCCC",
"CCCCCCCCCCCCCCCCCCCCCCCCCCCCCCCCCCCCCCCCCCCCCCCCCCCCCCCXXXXCCCCCCCCCCCCCCCCCXXCXCCCCCCCCCCCCCCCC",
"CCCCCCCCCCCCCCCCCCCCCCCCCCCCCCCCCCCCCCCCCCCCCCCCCCCCCCCCXCCCCCCCCCCCCCCCCCCCCCCCCCCCCCCCCCCCCCCC",
"CCCCCCCCCCCCCCCCXCCCCCCCCCCCCCCCCCCCCCCCCCCCCCCCCCCCCCCCXCCCCCCCCCCCCCCCCCCCCCCCCCCCCCCCCCCCCCCC",
"CCCCCCCCCCCCCCCCXXCCCCCCCCCCCCCCCCCCCCCCCCCCCCCCCCCCCCCCCCCCCCCCCCCCCCCCCCCCCCCCCCCCCCCCCCCCCCCC",
"CCCCCCCCCCCCCCCCCXCCCCCCCCCCCCCCCCCCCCCCCCCCCCCCCCCCCCCCCCCCCCCCCCCCCCCCCCCCCCCCCCCCCCCCCCCCCCCC",
"CCCCCCCCCCCCCCCCCCXCCXXCCCCCCCCCCCCCCCCCCCCCCCCCCCCCCCCCCCCCCCCCCCCCCCCCCCCCCCCCCCCCCCCCCCCCCCCC",
"CCCCCCCCCCCCCCCCCCXXCXCCCCCCCCCCCCCCCCCCCCCCCCCCCCCCCCCCCCCCCCCCCCCCCCCCCCCCCCCCCCCCCCCCCCCCCCCC",
"CCCCCCCCCCCCCCCCCCCXCXXXCCCCCCCCCCCCCCCCCCCCCCCCCCCCCCCCCCCCCCCCCCCCCCCCCCCCCCCCCCCCCCCCCCCCCCCC",
"CCCCCCCCCCCCCCCCCCCXXXXCCCCCCCCCCCCCCCCCCCCCCCCCCCCCCCCCCCCCCCCCCCCCCCCCCCCCCCCCCCCCCCCCCCCCCCCC",
"CCCCCCCCCCCCCCCCCCCXXXXCCCCCCCCCCCCCCCCCCCCCCCCCCCCCCCCCCCCCCCCCCCCCCCCCCCCCCCCCCCCCCCCCCCCCCCCC",
"CCCCCCCCCCCCCCCCCCCCCCCCCCCCCCCCCCCCCCCCCCCCCCCCCCCCCCCCCCCCCCCCCCCCCCCCCCCCCCCCCCCCCCCCCCCCCCCC",
"CCCCCCCCCCCCCCCCCCCCCCCCCCCCCCCCCCCCCCCCCCCCCCCCCCCCCCCCCCCCCCCCCCCCCCCCCCCCCCCCCCCCCCCCCCCCCCCC",
"CCCCCCCCCCCCCCCCCCCCCCCCCCCCCCCXXCCCCCXCCCCCCCCCCCCCCCCCCCCCCCCCCCCCCCCCCCCCCCCCCCCCCCCCCCCCCCCC",
"CCCCCCCCCCCCCCCCCCCCCCCCCCCCCCCCXXCCCXXCCCCCCCCCCCCCCCCCCCCCCCCCCCCCCCCCCCCCCCCCCCCCCCCCCCCCCCCC",
"CCCCCCCCCCCCCXXCCCCCCCCCCCCCCCCCXXCCXCCCXCCCCCCCCCCCCCCCCXCCCCCCCCCCCCCCCCCCCCCCCCCCCCCCCCCCCCCC",
"CCCCCCCCXXCCCXXCCCCCCCCCCCCCCCCCCXXCXCCXXCCCCCCCCCCCCXCCCXXCCCCCXCCCCCCCCCCCCCCCCCCCCCCCCCCCCCCC",
"CCCCCCCCCXXCCXCCCCCCCCCCCCCCCCCCCXXCXCCXCCCCCCCCCCCCCXXXCCXXCCCXXCCCCCCCCCCCCCCCCCCCCCCCCCCCCCCC",
"CCCCCCCCCCXXXXCXXCCCCCCCCCCCCCCCCCXXXCXCAAAAAAAAAAAAAAAAAAAXCCXXCCCCCCCCCCCCCCCCCCCCCCCCCCCCCCCC",
"CCCCCCCCCCCXXCCXCCCCCCCCCCCCCCCCCCXXXXAASSSSSSSSSSSSSSSSSSSAACXXCCCCCCCCCCCCCCCCCCCCCCCCCCCCCCCC",
"CCCCCCCCCCCXXXXCCCCCCCCCCCCCCCCCCCCAAASSSSSSSSSSSSSSSSSSSSSSSAACCCCCCCCCCCCCCCCCCCCCCCCCCCCCCCCC",
"CCCCCCCCCCCCXXCCCCCCCCCCCCCCCCCCCCASSSSSSSSSSSSSSSSSSSSSSSSSSSSAACCCCCCCCCCCCCCCCCCCCCCCCCCCCCCC",
"CCCCCCCCCCCCCCCCCCCCCCCCCCCCCCCAAASSSSSSSSSSSSSSSSSSSSSSSSSSSSSSSACCCCCCCCCCCCCCCCCCCCCCCCCCCCCC",
"CCCCCCCCCCCCCCCCCCCCCCCCCCCCCCASSSSSSSSSS@@@@@@@@@@@@@@@@SSSSSSSSSACCCCCCCCCCCCCCCCCCCCCCCCCCCCC",
"CCCCCCCCCCCCCCCCCCCCCCCCCCCCCASSSSSSSS@@@@@@@@@@@@@@@@@@@@@@SSSSSSSACCCCCCCCCCCCCCCCCCCCCCCCCCCC",
"CCCCCCCCCCCCCCCCCCCCCCCCCCCCASSSSSSSS@@@@@@@@@@@@@@@@@@@@@@@@@SSSSSSACCCCCCCCCCCCCCCCCCCCCCCCCCC",
"CCCCCCCCCCCCCCCCCCCCCCCCCCCCASSSSSSSS@@@@@@@@@@@@@@@@@@@@@@@@@SSSSSSACCCCCCCCCCCCCCCCCCCCCCCCCCC",
"CCCCCCCCCCCCCCCCCCCCCCCCCCCCASSSSSSS@@@@@@@@@@@@@@@@@@@@@@@@@@@SSSSSSACCCCCCCCCCCCCCCCCCCCCCCCCC",
"CCCCCCCCCCCCCCCCCCCCCCCCCCCASSSSSS@@@@@@@@@@@@@@@@@@@@@@@@@@@@@@@SSSSACCCCCCCCCCCCCCCCCCCCCCCCCC",
"CCCCCCCCCCCCCCCCCCCCCCCCCCCASSSS@@@@@@@@@@@@@@@VV@@M@@@@@@@@@@@@@@SSSSACCCCCCCCCCCXCCCCCCCCCCCCC",
"CCCCCCCCCCCCCCCCCCCCCCCCCCASSSS@@@@@@@@@@@@@bbOOVOMM@@@@@@@@@@@@@@SSSSACCCXXXCCCCXCCCCCCCCCCCCCC",
"CCCCCCCCCCCCCCCCCCCCCCCCCCASSSS@@@@@@@@tzOOOObffezzOOOONB@@@@@@@@@SSSSACCCCCXXCCCXCCCCCCCCCCCCCC",
"CCCCCCCCCCCCCCCCCCCCCCCCCCASSS@@@@@@zhOO9BOOBwyVfzVfONNNOO@@@@@@@@SSSSACCCCCCXXCXCCCCCCCCCCCCCCC",
"CCCCCCCCCCCCCCCCCCCCCCCCCCASSS@@@@@@@hlppevvvppyyfefVNNBBOBOw@@@@@SSSSACCCCCCXXCXXCCCCCCCCCCCCCC",
"CCCCCCCCCCCCCCCCCCCCCCCCCCASSS@@@@@@OOwwwpvvppczv>>fu55udgbzh@@@@@SSSSACCCCCCCXXCXCCCCCCCCCCCCCC",
"CCCCCCCCCCCCCCCCCCCCCCCCCCASSS@@@@@@OOwwwpvvppczv>>fu55udgbzh@@@@@SSSSACCCCCCCCCCCCCCCCCCCCCCCCC",
"CCCCCCCCCCCCCCCCCCCCCCXCCCASSS@@@@@OOBBdwppp2pncV;y;&ffmVexbO@@@@@SSSSACCCCCCCCCCCCCCCCCCCCCCCCC",
"CCCCCCCCCCCCCCCCCCCCCXXCC#ZSSS@@rrtOBBdpkvkkd28kp7l;$33yzddgBO@@@@SSSZZ#CCCCCCCCCCCCCCCCCCCCCCCC",
"CCCCCCCCCCCCCXXCCCCCXXCCC#ZSSS@@OOlqNdkp2:pp72$-7k8=o44w2pglOOz@@SSSSZZ#CCCCCCCCCCCCCCCCCCCCCCCC",
"CCCCCCCCCCCCCCXXXCCXXCCCC#ZZSSS@@@Owl<2pk4vvkk8w72-pp44%327wzzzSSSSSZZZ#CCCCCCCCCCCCCCCCCCCCCCCC",
"CCCCCCCCCCCCCCCXXCCXCCCCC#ZZSSSSSSOgg;,jv2ppjllbio-p2vv+a3fzhbSSSSSSZZZ#CCCCCCCCCCCCCCCCCCCCCCCC",
"CCCCCCCCCCCCCCCCXXCXXCXCC#ZZZSSSSSSBB6-sw4---11444zpdll*l0hhSSSSSSSZZZZ#CCCCCCCCCCCCCCCCCCCCCCCC",
"CCCCCCCCCCCCCCCCCXXXXCXCC#ZZZZSSSSSSBggBll777pip2-4pvvv44wBSSSSSSZZZZZZ#CCCCCCCCCCCCCCCCCCCCCCCC",
"CCCCCCCCCCCCCCCCCCXXXXXCC#ZZZZZSSSSSSSBvvvvvvvvvaaaiiiiavvSSSSSZZZZZZZZ#CCCCCCCCCCCCCCCCCCCCCCCC",
"CCCCCCCCCCCCCCCCCCCXXXCCC#ZZZZZSSSSSSSBvvvvvvvvvaaaiiiiavvSSSSSZZZZZZZZ#CCCCCCCCCCCCCCCCCCCCCCCC",
"CCCCCCCCCCCCCCCCCCCCCCCCC#ZZZZZZSSSSSSSSSSSSSSSSSSSSSSSSSSSSSSZZZZZZZZZ#CCCCCCCCCCCCCCCCCCCCCCCC",
"CCCCCCCCCCCCCCCCCCCCCCCCC#ZZZZZZZZZSSSSSSSSSSSSSSSSSSSSSSSSSZZZZZZZZZZZ#CCCCCCCCCCCCCCCCCCCCCCCC",
"CCCCCCCCCCCCCCCCCCCCCCCC.#ZZZZZZZZZZZSSSSSSSSSSSSSSSSSSSSSZZZZZZZZZZZZZ#CCCCCCCCCCCCCCCCCCCCCCCC",
"CCCCCCCCCCCCCCCCCCCCCCCC.#ZZZZZZZZZZZZZSSSSSSSSSSSSSSSSSZZZZZZZZZZZZZZ#.CCCCCCCCCCCCCCCCCCCCCCCC",
"CCCCCCCCCCCCCCCCCCCCCCCC..#ZZZZZZZZZZZZZZZZZZZZZZZZZZZZZZZZZZZZZZZZZZZ#.CCCCCCCCCCCCCCCCCCCCCCCC",
"CCCCCCCCCCCCCCCCCCCCCCCC...#ZZZZZZZZZZZZZZZZZZZZZZZZZZZZZZZZZZZZZZZZZZ#.CCCCCCCCCCCCCCCCCCCCCCCC",
"CCCCCCCCCCCCCCCCCCCCCCCC...#ZZZZZZZZZZZZZZZZZZZZZZZZZZZZZZZZZZZZZZZZZ#..CCCCCCCCCCCCCCCCCCCCCCCC",
"CCCCCCCCCCCCXCCCCXCCCCCC....#ZZZZZZZZZZZZZZZZZZZZZZZZZZZZZZZZZZZZZZZ#. .CCCCCCCCCCCCCCCCCCCCCCCC",
"CCCCCCCCCCCCXXCCXXCCCCCCC...#ZZZZZZZZZZZZZZZZZZZZZZZZZZZZZZZZZZZZZZZ#  CCCCCCCCCCCCCCCCCCCCCCCCC",
"CCCCCCCCCCCCXXCCXCCCCCCCC....#ZZZZZZZZZZZZZZZZZZZZZZZZZZZZZZZZZZZZZ#.  CCCCCCCCCXXCCCCCXCCCCCCCC",
"CCCCCCCCCCCCCXXCXCCCCCCCCC....##ZZZZZZZZZZZZZZZZZZZZZZZZZZZZZZZZZ##.   CCCCCCCCCXXXCCCXXCCCCCCCC",
"CCCCCCCCCCCCCXXCXCCCCCCCCCCC....##ZZZZZZZZZZZZZZZZZZZZZZZZZZZZ###  .XXCCCCCCCCCCCXXXXXXCCCCCCCCC",
"CCCCCCCCCCCXCCXXXCCCCCCCCCCC......##ZZZZZZZZZZZZZZZZZZZZZZZZZ#....  XCCCCCCCCCCCCCXCXXXCCCCCCCCC",
"CCCCCCCCCCCXXCXXXCCCCCCCCCCCCC......#########################...  XXXCCCCCCCCCCCCCCXCXXCCCCCCCCC",
"CCCCCCCCCCCCXXCXCCCCCCCCCCCCCCC............... .................CXXXXCCCCCCCCCCCCCCXXXXCCCCCCCCC",
"CCCCCCCCCCCCCXCXCCCCCCCCCCCXXCCXC............. ..............CCCCCCCCCCCCCCCCCCCCCCCXXXCCCCCCCCC",
"CCCCCCCCCCCCCCCXCCCCCCCCCCCCXXCXCCCC.......... ..........CCCCCCCCCCCCCCCCCCCCCCCCCCCXXXCCCCCCCCC",
"CCCCCCCCCCCCCCCCCCCCCCCCCCCCXXXXCCCCCCCC...... ........CCCCCCCCCCCCCCCCCCCCCCCCCCCCCCXCXCCCCCCCC",
"CCCCCCCCCCCCCCCCCCCCCCCCCCCCCXXXCCCCCCCCCCC..CXCCCCCCCCCCCCCCCCCCCCCCCCCCCCCCCCCCCCCCCCCCCCCCCCC",
"CCCCCCCCCCCCCCCCCCCCCCCCCCCCCXXCXCCCCCCCCCCCCCXXCCCCCCCCCCCCCCCCCCCCCCCCCCCCCCCCCCCCCCCCCCCCCCCC",
"CCCCCCCCCCCCCCCCCCCCCCCCCCCCCCCCXCCCCCCCCCCCCCCXCXCCCCCCCCCCCCCCCCCCCCCCCCCCCCCCCCCCCCCCCCCCCCCC",
"CCCCCCCCCCCCCCCCCCCCCCCCCCCCCCCCCCCCCCCCCXXXXXCXXXCCCCCCCCCCCCCCCCCCCCCCCCCCCCCCCCCCCCCCCCCCCCCC",
"CCCCCCCCCCCCCCCCCCCCCCCCCCCCCCCCCCCCCCCCCCCCCXXXXCCCCCCCCCCCCCCCCCCCCCCCCCCCCCCCCCCCCCCCCCCCCCCC",
"CCCCCCCCCCCCCCCCCCCCCCCCCCCCCCCCCCCCCCCCCCCCCCXXXCCCCCCCCCCCCCCCCCCCCCCCCCCCCCCCCCCCCCCCCCCCCCCC",
"CCCCCCCCCCCCCCCCCCCCCCCCCCCCCCCCCCCCCCCCCCCCCCCXCCCCCCCCCCCCCCCCCCCCCCCCCXCCCCCCCCCCCCCCCCCCCCCC",
"CCCCCCCCCCCCCCCCCCCCCCCCCCCCCCCCXCCCCCCCCCCCCCCCCCCCCCCCCCCCCCCCCCCCCCCCXXCCCCCCCCCCCCCCCCCCCCCC",
"CCCCCCCCCCCCCCCCCCCCCCCCCXXCCCCCXCCCCCCCCCCCCCCCCCCCCCCCCCCCCCCCCCCCCCCXXCCCCCCCCCCCCCCCCCCCCCCC",
"CCCCCCCCCCCCCCCCCCCCCCCCCXXXCCCXXCCCCCCCCCCCCCCCCCCCCCCCCCCCCCCCCCCXCCXXXCCCCCCCCCCCCCCCCCCCCCCC",
"CCCCCCCCCCCCCCCCCXXCCCCCCCXXCCCXCCCCCCCCCCCCCCCCCCCCCCCCCCCCCCCCCCCXXCXXXCCCCCCCCCCCCCCCCCCCCCCC",
"CCCCCCCCCXXXCCCCCXXCCCCCCCXXXCXXCXXCCCCCCCCCCCCCCCCCCCCCCCCCCCCXXXCCXXXXCCCCCCCCCCCCCCCCCCCCCCCC",
"CCCCCCCCCCCXXXCCXXCCCCCCCXCXXXXXXXCCCCCCCCCCCCCCCCCCCCCCCCCCCCCCCXXXXXXXCCCCCCCCCCCCCCCCCCCCCCCC",
"CCCCCCCCCCCCCXXXXCCCCCCCCXXCXXXXXCCCCCCCCCCCCCCCCCCCCCCCCCCCCCCCCCXXXXXXCCCCCCCCCCCCCCCCCCCCCCCC",
"CCCCCCCCCCCCCXXXXCCCCCCCCCXXXXXXCCCCCCCCCCCCCCCCCCCCCCCCCCCCCCCCCCCXXXXCCCCCCCCCCCCCCCCCCCCCCCCC",
"CCCCCCCCCCCCCXXXXCCCCCCCCCCXXXCXCCCCCCCCCCCCCCCCCCCCCCCCCCCCCCCCCCCXCCCCCCCCCCCCCCCCCCCCCCCCCCCC",
"CCCCCCCCCCCCCCCCCCCCCCCCCCCCXCCCCCCCCCCCCCCCCCCCCCCCCCCCCCCCCCCCCCCCCCCCCCCCCCCCCCCCCCCCCCCCCCCC",
"CCCCCCCCCCCCCCCCCCCCCCCCCCCCCCCCCCCCCCCCCCCCCCCCCCCCCCCCCCCCCCCCCCCCCCCCCCCCCCCCCCCCCCCCCCCCCCCC",
"CCCCCCCCCCCCCCCCCCCCCCCCCCCCCCCCCCCCCCCCCCCCCCCCCCCCCCCCCCCCCCCCCCCCCCCCCCCCCCCCCCCCCCCCCCCCCCCC",
"CCCCCCCCCCCCCCCCCCCCCCCCCCCCCCCCCCCCCCCCCCCCCCCCCCCCCCCCCCCCCCCCCCCCCCCCCCCCCCCCCCCCCCCCCCCCCCCC",
"CCCCCCCCCCCCCCCCCCCCCCCCCCCCCCCCCCCCCCCCCCCCCCCCCCCCCCCCCCCCCCCCCCCCCCCCCCCCCCCCCCCCCCCCCCCCCCCC",
"CCCCCCCCCCCCCCCCCCCCCCCCCCCCCCCCCCCCCCCCCCCCCCCCCCCCCCCCCCCCCCCCCCCCCCCCCCCCCCCCCCCCCCCCCCCCCCCC",
"CCCCCCCCCCCCCCCCCCCCCCCCCCCCCCCCCCCCCCCCCCCCCCCCCCCCCCCCCCCCCCCCCCCCCCCCCCCCCCCCCCCCCCCCCCCCCCCC",
"CCCCCCCCCCCCCCCCCCCCCCCCCCCCCCCCCCCCCCCCCCCCCCCCCCCCCCCCCCCCCCCCCCCCCCCCCCCCCCCCCCCCCCCCCCCCCCCC"
};
