/* XPM */
static char *result[] = {
/* columns rows colors chars-per-pixel */
"96 96 14 1 ",
"  c #324414",
". c #3B4E1A",
"X c #374420",
"o c #416519",
"O c #445C2D",
"+ c #4B692F",
"@ c #496A30",
"# c #577937",
"$ c #D95763",
"% c #548332",
"& c #729A4E",
"* c #7AAE40",
"= c #8CB85B",
"- c #F9F26D",
/* pixels */
"################################################################################################",
"################################################################################################",
"################################################################################################",
"###&&&&&&&&&&&&&&&&&&&&&&&&&&&&&&&&&&&&&&&&&&&&&&&&&&&&&&&&&&&&&&&&&&&&&&&&&&&---&&&&&&&&&######",
"###&&&&&&&&&&&&&&&&&&&&&&&&&&&&&&&&&&&&&&&&&&&&&&&&&&&&&&&&&&&&&&&&&&&&&&&&&&&---&&&&&&&&&######",
"###&&&&&&&&&&&&&&&&&&&&&&&&&&&&&&&&&&&&&&&&&&&&&&&&&&&&&&&&&&&&&&&&&&&&&&&&&&&---&&&&&&&&&######",
"###&&&&&&=========***=====================&&&&&&&&&======***===============---------===&&&&&&###",
"###&&&&&&=========***=====================&&&&&&&&&======***===============---------===&&&&&&###",
"###&&&&&&=========***=====================&&&&&&&&&======***===============---------===&&&&&&###",
"###&&&=========******=========---============&&&======******==================***======***&&&###",
"###&&&=========******=========---============&&&======******==================***======***&&&###",
"###&&&=========******=========---============&&&======******==================***======***&&&###",
"###============***======***===------==================***===============***===***======***===###",
"###============***======***===------==================***===============***===***======***===###",
"###============***======***===------==================***===============***===***======***===###",
"@@@&&&==================***===***=======================================***===***============###",
"@@@&&&==================***===***=======================================***===***============###",
"@@@&&&==================***===***=======================================***===***============###",
"@@@&&&======---=========***===******======================================================&&&@@@",
"@@@&&&======---=========***===******======================================================&&&@@@",
"@@@&&&======---=========***===******======================================================&&&@@@",
"@@@&&&&&&---------====================================***===========================&&&&&&&&&@@@",
"@@@&&&&&&---------====================================***===========================&&&&&&&&&@@@",
"@@@&&&&&&---------====================================***===========================&&&&&&&&&@@@",
"@@@&&&&&&===%%%=======================================***=====================&&&&&&&&&&&&&&&@@@",
"@@@&&&&&&===%%%=======================================***=====================&&&&&&&&&&&&&&&@@@",
"@@@&&&&&&===%%%=======================================***=====================&&&&&&&&&&&&&&&@@@",
"@@@&&&&&&&&&%%%======***==================$$$$$$===========================&&&&&&&&&&&&&&&###@@@",
"@@@&&&&&&&&&%%%======***==================$$$$$$===========================&&&&&&&&&&&&&&&###@@@",
"@@@&&&&&&&&&%%%======***==================$$$$$$===========================&&&&&&&&&&&&&&&###@@@",
"@@@###&&&&&&%%%======***===============$$$$$$$$$==================***======&&&&&&&&&&&&######@@@",
"@@@###&&&&&&%%%======***===============$$$$$$$$$==================***======&&&&&&&&&&&&######@@@",
"@@@###&&&&&&%%%======***===============$$$$$$$$$==================***======&&&&&&&&&&&&######@@@",
"@@@###&&&&&&%%%&&&%%%&&&&&&&&&&&&&&&&&&===%%%=====================***======&&&%%%&&&&&&&&&###@@@",
"@@@###&&&&&&%%%&&&%%%&&&&&&&&&&&&&&&&&&===%%%=====================***======&&&%%%&&&&&&&&&###@@@",
"@@@###&&&&&&%%%&&&%%%&&&&&&&&&&&&&&&&&&===%%%=====================***======&&&%%%&&&&&&&&&###@@@",
"@@@###&&&&&&&&&&&&&&&&&&&&&&&&&&&&&&&&&&&&%%%======%%%============&&&&&&&&&&&&%%%&&&&&&&&&###@@@",
"@@@###&&&&&&&&&&&&&&&&&&&&&&&&&&&&&&&&&&&&%%%======%%%============&&&&&&&&&&&&%%%&&&&&&&&&###@@@",
"@@@###&&&&&&&&&&&&&&&&&&&&&&&&&&&&&&&&&&&&%%%======%%%============&&&&&&&&&&&&%%%&&&&&&&&&###@@@",
"@@@######&&&&&&&&&&&&&&&&&&&&&&&&&&&&&&&&&%%%&&&&&&%%%&&&&&&&&&&&&&&&&&&&&&&&&&&&&&&&&&&&&&&&@@@",
"@@@######&&&&&&&&&&&&&&&&&&&&&&&&&&&&&&&&&%%%&&&&&&%%%&&&&&&&&&&&&&&&&&&&&&&&&&&&&&&&&&&&&&&&@@@",
"@@@######&&&&&&&&&&&&&&&&&&&&&&&&&&&&&&&&&%%%&&&&&&%%%&&&&&&&&&&&&&&&&&&&&&&&&&&&&&&&&&&&&&&&@@@",
"@@@######&&&&&&&&&&&&&&&&&&&&&&&&&&&&&&&&&&&&&&&&&&&&&&&&&&&&&&&&&&&&&&&&&&&&&&&&&&&&&&&&&&&&@@@",
"@@@######&&&&&&&&&&&&&&&&&&&&&&&&&&&&&&&&&&&&&&&&&&&&&&&&&&&&&&&&&&&&&&&&&&&&&&&&&&&&&&&&&&&&@@@",
"@@@######&&&&&&&&&&&&&&&&&&&&&&&&&&&&&&&&&&&&&&&&&&&&&&&&&&&&&&&&&&&&&&&&&&&&&&&&&&&&&&&&&&&&@@@",
"XXX######&&&&&&&&&&&&&&&&&&&&&&&&&&&&&&&&&&&&&&&&&&&&&&&&&&&&&&&&&&&&&&&&&&&&&&&&&&&&&&&&&###XXX",
"XXX######&&&&&&&&&&&&&&&&&&&&&&&&&&&&&&&&&&&&&&&&&&&&&&&&&&&&&&&&&&&&&&&&&&&&&&&&&&&&&&&&&###XXX",
"XXX######&&&&&&&&&&&&&&&&&&&&&&&&&&&&&&&&&&&&&&&&&&&&&&&&&&&&&&&&&&&&&&&&&&&&&&&&&&&&&&&&&###XXX",
"XXX######&&&&&&&&&&&&&&&&&&%%%&&&&&&&&&&&&&&&&&&&&&&&&&&&&&&&&&&&&&&&&&&%%%&&&&&&&&&ooo######XXX",
"XXX######&&&&&&&&&&&&&&&&&&%%%&&&&&&&&&&&&&&&&&&&&&&&&&&&&&&&&&&&&&&&&&&%%%&&&&&&&&&ooo######XXX",
"XXX######&&&&&&&&&&&&&&&&&&%%%&&&&&&&&&&&&&&&&&&&&&&&&&&&&&&&&&&&&&&&&&&%%%&&&&&&&&&ooo######XXX",
"XXX@@@######ooo&&&&&&&&&&&&%%%&&&&&&&&&&&&&&&&&&%%%&&&&&&&&&&&&&&&&&&&&&%%%&&&&&&&&&ooo######XXX",
"XXX@@@######ooo&&&&&&&&&&&&%%%&&&&&&&&&&&&&&&&&&%%%&&&&&&&&&&&&&&&&&&&&&%%%&&&&&&&&&ooo######XXX",
"XXX@@@######ooo&&&&&&&&&&&&%%%&&&&&&&&&&&&&&&&&&%%%&&&&&&&&&&&&&&&&&&&&&%%%&&&&&&&&&ooo######XXX",
"XXX@@@@@@###ooo&&&&&&&&&&&&%%%&&&&&&&&&&&&%%%&&&%%%&&&&&&&&&&&&&&&%%%&&&%%%&&&&&&###ooo###@@@XXX",
"XXX@@@@@@###ooo&&&&&&&&&&&&%%%&&&&&&&&&&&&%%%&&&%%%&&&&&&&&&&&&&&&%%%&&&%%%&&&&&&###ooo###@@@XXX",
"XXX@@@@@@###ooo&&&&&&&&&&&&%%%&&&&&&&&&&&&%%%&&&%%%&&&&&&&&&&&&&&&%%%&&&%%%&&&&&&###ooo###@@@XXX",
"@@@#########ooo###&&&&&&&&&%%%&&&&&&&&&&&&%%%&&&%%%&&&&&&&&&&&&&&&&&&&&&&&&&&&##################",
"@@@#########ooo###&&&&&&&&&%%%&&&&&&&&&&&&%%%&&&%%%&&&&&&&&&&&&&&&&&&&&&&&&&&&##################",
"@@@#########ooo###&&&&&&&&&%%%&&&&&&&&&&&&%%%&&&%%%&&&&&&&&&&&&&&&&&&&&&&&&&&&##################",
"@@@#####################&&&&&&&&&ooo&&&&&&&&&&&&&&&&&&&&&&&&&&&&&&&&&&&&#########ooo############",
"@@@#####################&&&&&&&&&ooo&&&&&&&&&&&&&&&&&&&&&&&&&&&&&&&&&&&&#########ooo############",
"@@@#####################&&&&&&&&&ooo&&&&&&&&&&&&&&&&&&&&&&&&&&&&&&&&&&&&#########ooo############",
"@@@##############################ooo#############################################ooo#########@@@",
"@@@##############################ooo#############################################ooo#########@@@",
"@@@##############################ooo#############################################ooo#########@@@",
"@@@############ooo###############ooo######ooo####################################ooo###ooo###@@@",
"@@@############ooo###############ooo######ooo####################################ooo###ooo###@@@",
"@@@############ooo###############ooo######ooo####################################ooo###ooo###@@@",
"@@@############ooo########################ooo################################################@@@",
"@@@############ooo########################ooo################################################@@@",
"@@@############ooo########################ooo################################################@@@",
"@@@######ooo##############################ooo###ooo###############ooo########################@@@",
"@@@######ooo##############################ooo###ooo###############ooo########################@@@",
"@@@######ooo##############################ooo###ooo###############ooo########################@@@",
"XXX###############---#####################ooo###ooo#########ooo###ooo############$$$$$$$$$###XXX",
"XXX###############---#####################ooo###ooo#########ooo###ooo############$$$$$$$$$###XXX",
"XXX###############---#####################ooo###ooo#########ooo###ooo############$$$$$$$$$###XXX",
"XXX############---------####################################ooo#####################ooo######XXX",
"XXX############---------####################################ooo#####################ooo######XXX",
"XXX############---------####################################ooo#####################ooo######XXX",
"XXX@@@############ooo###############################################################ooo######XXX",
"XXX@@@############ooo###############################################################ooo######XXX",
"XXX@@@############ooo###############################################################ooo######XXX",
"XXX@@@@@@###ooo###ooo###############@@@#######################################ooo###ooo###@@@XXX",
"XXX@@@@@@###ooo###ooo###############@@@#######################################ooo###ooo###@@@XXX",
"XXX@@@@@@###ooo###ooo###############@@@#######################################ooo###ooo###@@@XXX",
"XXX@@@@@@###ooo###ooo###############@@@#######################################ooo###ooo###@@@XXX",
"XXX@@@@@@###ooo###ooo###############@@@#######################################ooo###ooo###@@@XXX",
"XXX@@@@@@###ooo###ooo###############@@@#######################################ooo###ooo###@@@XXX",
"XXX@@@@@@@@@   ##################@@@   @@@############   #########      ###############@@@@@@XXX",
"XXX@@@@@@@@@   ##################@@@   @@@############   #########      ###############@@@@@@XXX",
"XXX@@@@@@@@@   ##################@@@   @@@############   #########      ###############@@@@@@XXX",
"XXX...   ...OOO   +++............OOOOOO      +++   ............   OOOOOO      ...   OOO   ...XXX",
"XXX...   ...OOO   +++............OOOOOO      +++   ............   OOOOOO      ...   OOO   ...XXX",
"XXX...   ...OOO   +++............OOOOOO      +++   ............   OOOOOO      ...   OOO   ...XXX"
};
