/* XPM */
static char *result[] = {
/* columns rows colors chars-per-pixel */
"96 96 20 1 ",
"  c #5F3420",
". c #6D3921",
"X c #324414",
"o c #3B4E1A",
"O c #374420",
"+ c #416519",
"@ c #415125",
"# c #445C2D",
"$ c #4B692F",
"% c #496A30",
"& c #577937",
"* c #814426",
"= c #8D4E2F",
"- c #8F563B",
"; c #D95763",
": c #548332",
"> c #729A4E",
", c #7AAE40",
"< c #8CB85B",
"1 c #F9F26D",
/* pixels */
"&&&&&&&&&&&&&&&&&&&&&&&&&&&&&&&&&&&&&&&&&&&&&&&&&&&&&&&&&&&&&&&&&&&&&&&&&&&&&&&&&&&&&&&&&&&&&&&&",
"&&&&&&&&&&&&&&&&&&&&&&&&&&&&&&&&&&&&&&&&&&&&&&&&&&&&&&&&&&&&&&&&&&&&&&&&&&&&&&&&&&&&&&&&&&&&&&&&",
"&&&&&&&&&&&&&&&&&&&&&&&&&&&&&&&&&&&&&&&&&&&&&&&&&&&&&&&&&&&&&&&&&&&&&&&&&&&&&&&&&&&&&&&&&&&&&&&&",
"&&&>>>>>>>>>>>>>>>>>>>>>>>>>>>>>>>>>>>>>>>>>>>>>>>>>>>>>>>>>>>>>>>>>>>>>>>>>>>111>>>>>>>>>&&&&&&",
"&&&>>>>>>>>>>>>>>>>>>>>>>>>>>>>>>>>>>>>>>>>>>>>>>>>>>>>>>>>>>>>>>>>>>>>>>>>>>>111>>>>>>>>>&&&&&&",
"&&&>>>>>>>>>>>>>>>>>>>>>>>>>>>>>>>>>>>>>>>>>>>>>>>>>>>>>>>>>>>>>>>>>>>>>>>>>>>111>>>>>>>>>&&&&&&",
"&&&>>>>>><<<<<<<<<,,,<<<<<<<<<<<<<<<<<<<<<>>>>>>>>><<<<<<,,,<<<<<<<<<<<<<<<111111111<<<>>>>>>&&&",
"&&&>>>>>><<<<<<<<<,,,<<<<<<<<<<<<<<<<<<<<<>>>>>>>>><<<<<<,,,<<<<<<<<<<<<<<<111111111<<<>>>>>>&&&",
"&&&>>>>>><<<<<<<<<,,,<<<<<<<<<<<<<<<<<<<<<>>>>>>>>><<<<<<,,,<<<<<<<<<<<<<<<111111111<<<>>>>>>&&&",
"&&&>>><<<<<<<<<,,,,,,<<<<<<<<<111<<<<<<<<<<<<>>><<<<<<,,,,,,<<<<<<<<<<<<<<<<<<,,,<<<<<<,,,>>>&&&",
"&&&>>><<<<<<<<<,,,,,,<<<<<<<<<111<<<<<<<<<<<<>>><<<<<<,,,,,,<<<<<<<<<<<<<<<<<<,,,<<<<<<,,,>>>&&&",
"&&&>>><<<<<<<<<,,,,,,<<<<<<<<<111<<<<<<<<<<<<>>><<<<<<,,,,,,<<<<<<<<<<<<<<<<<<,,,<<<<<<,,,>>>&&&",
"&&&<<<<<<<<<<<<,,,<<<<<<,,,<<<111111<<<<<<<<<<<<<<<<<<,,,<<<<<<<<<<<<<<<,,,<<<,,,<<<<<<,,,<<<&&&",
"&&&<<<<<<<<<<<<,,,<<<<<<,,,<<<111111<<<<<<<<<<<<<<<<<<,,,<<<<<<<<<<<<<<<,,,<<<,,,<<<<<<,,,<<<&&&",
"&&&<<<<<<<<<<<<,,,<<<<<<,,,<<<111111<<<<<<<<<<<<<<<<<<,,,<<<<<<<<<<<<<<<,,,<<<,,,<<<<<<,,,<<<&&&",
"%%%>>><<<<<<<<<<<<<<<<<<,,,<<<,,,<<<<<<<<<<<<<<<<<<<<<<<<<<<<<<<<<<<<<<<,,,<<<,,,<<<<<<<<<<<<&&&",
"%%%>>><<<<<<<<<<<<<<<<<<,,,<<<,,,<<<<<<<<<<<<<<<<<<<<<<<<<<<<<<<<<<<<<<<,,,<<<,,,<<<<<<<<<<<<&&&",
"%%%>>><<<<<<<<<<<<<<<<<<,,,<<<,,,<<<<<<<<<<<<<<<<<<<<<<<<<<<<<<<<<<<<<<<,,,<<<,,,<<<<<<<<<<<<&&&",
"%%%>>><<<<<<111<<<<<<<<<,,,<<<,,,,,,<<<<<<<<<<<<<<<<<<<<<<<<<<<<<<<<<<<<<<<<<<<<<<<<<<<<<<>>>%%%",
"%%%>>><<<<<<111<<<<<<<<<,,,<<<,,,,,,<<<<<<<<<<<<<<<<<<<<<<<<<<<<<<<<<<<<<<<<<<<<<<<<<<<<<<>>>%%%",
"%%%>>><<<<<<111<<<<<<<<<,,,<<<,,,,,,<<<<<<<<<<<<<<<<<<<<<<<<<<<<<<<<<<<<<<<<<<<<<<<<<<<<<<>>>%%%",
"%%%>>>>>>111111111<<<<<<<<<<<<<<<<<<<<<<<<<<<<<<<<<<<<,,,<<<<<<<<<<<<<<<<<<<<<<<<<<<>>>>>>>>>%%%",
"%%%>>>>>>111111111<<<<<<<<<<<<<<<<<<<<<<<<<<<<<<<<<<<<,,,<<<<<<<<<<<<<<<<<<<<<<<<<<<>>>>>>>>>%%%",
"%%%>>>>>>111111111<<<<<<<<<<<<<<<<<<<<<<<<<<<<<<<<<<<<,,,<<<<<<<<<<<<<<<<<<<<<<<<<<<>>>>>>>>>%%%",
"%%%>>>>>><<<:::<<<<<<<<<<<<<<<<<<<<<<<<<<<<<<<<<<<<<<<,,,<<<<<<<<<<<<<<<<<<<<<>>>>>>>>>>>>>>>%%%",
"%%%>>>>>><<<:::<<<<<<<<<<<<<<<<<<<<<<<<<<<<<<<<<<<<<<<,,,<<<<<<<<<<<<<<<<<<<<<>>>>>>>>>>>>>>>%%%",
"%%%>>>>>><<<:::<<<<<<<<<<<<<<<<<<<<<<<<<<<<<<<<<<<<<<<,,,<<<<<<<<<<<<<<<<<<<<<>>>>>>>>>>>>>>>%%%",
"%%%>>>>>>>>>:::<<<<<<,,,<<<<<<<<<<<<<<<<<<;;;;;;<<<<<<<<<<<<<<<<<<<<<<<<<<<>>>>>>>>>>>>>>>&&&%%%",
"%%%>>>>>>>>>:::<<<<<<,,,<<<<<<<<<<<<<<<<<<;;;;;;<<<<<<<<<<<<<<<<<<<<<<<<<<<>>>>>>>>>>>>>>>&&&%%%",
"%%%>>>>>>>>>:::<<<<<<,,,<<<<<<<<<<<<<<<<<<;;;;;;<<<<<<<<<<<<<<<<<<<<<<<<<<<>>>>>>>>>>>>>>>&&&%%%",
"%%%&&&>>>>>>:::<<<<<<,,,<<<<<<<<<<<<<<<;;;;;;;;;<<<<<<<<<<<<<<<<<<,,,<<<<<<>>>>>>>>>>>>&&&&&&%%%",
"%%%&&&>>>>>>:::<<<<<<,,,<<<<<<<<<<<<<<<;;;;;;;;;<<<<<<<<<<<<<<<<<<,,,<<<<<<>>>>>>>>>>>>&&&&&&%%%",
"%%%&&&>>>>>>:::<<<<<<,,,<<<<<<<<<<<<<<<;;;;;;;;;<<<<<<<<<<<<<<<<<<,,,<<<<<<>>>>>>>>>>>>&&&&&&%%%",
"%%%&&&>>>>>>:::>>>:::>>>>>>>>>>>>>>>>>><<<:::<<<<<<<<<<<<<<<<<<<<<,,,<<<<<<>>>>>>>>>>>>>>>&&&%%%",
"%%%&&&>>>>>>:::>>>:::>>>>>>>>>>>>>>>>>><<<:::<<<<<<<<<<<<<<<<<<<<<,,,<<<<<<>>>>>>>>>>>>>>>&&&%%%",
"%%%&&&>>>>>>:::>>>:::>>>>>>>>>>>>>>>>>><<<:::<<<<<<<<<<<<<<<<<<<<<,,,<<<<<<>>>>>>>>>>>>>>>&&&%%%",
"%%%&&&>>>>>>>>>>>>>>>>>>>>>>>>>>>>>>>>>>>>:::<<<<<<:::<<<<<<<<<<<<>>>>>>>>>>>>>>>>>>>>>>>>&&&%%%",
"%%%&&&>>>>>>>>>>>>>>>>>>>>>>>>>>>>>>>>>>>>:::<<<<<<:::<<<<<<<<<<<<>>>>>>>>>>>>>>>>>>>>>>>>&&&%%%",
"%%%&&&>>>>>>>>>>>>>>>>>>>>>>>>>>>>>>>>>>>>:::<<<<<<:::<<<<<<<<<<<<>>>>>>>>>>>>>>>>>>>>>>>>&&&%%%",
"%%%&&&&&&&&&&&&>>>>>>>>>>>>>>>>>>>>>>>>>>>:::>>>>>>:::>>>>>>>>>>>>>>>>>>>>>>>>>>>>>>>>>>>>&&&%%%",
"%%%&&&&&&&&&&&&>>>>>>>>>>>>>>>>>>>>>>>>>>>:::>>>>>>:::>>>>>>>>>>>>>>>>>>>>>>>>>>>>>>>>>>>>&&&%%%",
"%%%&&&&&&&&&&&&>>>>>>>>>>>>>>>>>>>>>>>>>>>:::>>>>>>:::>>>>>>>>>>>>>>>>>>>>>>>>>>>>>>>>>>>>&&&%%%",
"%%%&&&&&&&&&&&&&&&&&&&&&&&&&&&>>>>>>>>>>>>>>>>>>>>>>>>>>>>>>>>>>>>>>>>>>>>>>>>>>>>>>;;;&&&&&&%%%",
"%%%&&&&&&&&&&&&&&&&&&&&&&&&&&&>>>>>>>>>>>>>>>>>>>>>>>>>>>>>>>>>>>>>>>>>>>>>>>>>>>>>>;;;&&&&&&%%%",
"%%%&&&&&&&&&&&&&&&&&&&&&&&&&&&>>>>>>>>>>>>>>>>>>>>>>>>>>>>>>>>>>>>>>>>>>>>>>>>>>>>>>;;;&&&&&&%%%",
"OOO&&&&&&&&&&&&&&&111&&&&&&&&&&&&&&&>>>>>>>>>>>>>>>>>>>>>>>>>>>>>>>>>>>>&&&&&&&&&;;;;;;;;;&&&OOO",
"OOO&&&&&&&&&&&&&&&111&&&&&&&&&&&&&&&>>>>>>>>>>>>>>>>>>>>>>>>>>>>>>>>>>>>&&&&&&&&&;;;;;;;;;&&&OOO",
"OOO&&&&&&&&&&&&&&&111&&&&&&&&&&&&&&&>>>>>>>>>>>>>>>>>>>>>>>>>>>>>>>>>>>>&&&&&&&&&;;;;;;;;;&&&OOO",
"OOO&&&&&&&&&&&&111111111&&&&&&&&&&&&&&&&&&&&&&&&&&&&&&&&&&&&&&&&&&&&&&&&&&&&&&&&&&&&+++&&&&&&OOO",
"OOO&&&&&&&&&&&&111111111&&&&&&&&&&&&&&&&&&&&&&&&&&&&&&&&&&&&&&&&&&&&&&&&&&&&&&&&&&&&+++&&&&&&OOO",
"OOO&&&&&&&&&&&&111111111&&&&&&&&&&&&&&&&&&&&&&&&&&&&&&&&&&&&&&&&&&&&&&&&&&&&&&&&&&&&+++&&&&&&OOO",
"OOO%%%&&&&&&&&&&&&+++&&&&&&&&&&&&&&&&&&&&&&&&&&&&&&&&&&&&&&&&&&&&&&&&&&&&&&&&&&&&&&&+++&&&&&&OOO",
"OOO%%%&&&&&&&&&&&&+++&&&&&&&&&&&&&&&&&&&&&&&&&&&&&&&&&&&&&&&&&&&&&&&&&&&&&&&&&&&&&&&+++&&&&&&OOO",
"OOO%%%&&&&&&&&&&&&+++&&&&&&&&&&&&&&&&&&&&&&&&&&&&&&&&&&&&&&&&&&&&&&&&&&&&&&&&&&&&&&&+++&&&&&&OOO",
"OOO%%%%%%&&&+++&&&+++&&&&&&&&&&&&&&&%%%&&&&&&&&&&&&&&&&&&&&&&&&&&&&&&&&&&&&&&&+++&&&+++&&&%%%OOO",
"OOO%%%%%%&&&+++&&&+++&&&&&&&&&&&&&&&%%%&&&&&&&&&&&&&&&&&&&&&&&&&&&&&&&&&&&&&&&+++&&&+++&&&%%%OOO",
"OOO%%%%%%&&&+++&&&+++&&&&&&&&&&&&&&&%%%&&&&&&&&&&&&&&&&&&&&&&&&&&&&&&&&&&&&&&&+++&&&+++&&&%%%OOO",
"OOO%%%%%%%%%XXX&&&&&&&&&&&&&&&&&&%%%XXX%%%&&&&&&&&&&&&XXX&&&&&&&&&XXXXXX&&&&&&&&&&&&&&&%%%%%%OOO",
"OOO%%%%%%%%%XXX&&&&&&&&&&&&&&&&&&%%%XXX%%%&&&&&&&&&&&&XXX&&&&&&&&&XXXXXX&&&&&&&&&&&&&&&%%%%%%OOO",
"OOO%%%%%%%%%XXX&&&&&&&&&&&&&&&&&&%%%XXX%%%&&&&&&&&&&&&XXX&&&&&&&&&XXXXXX&&&&&&&&&&&&&&&%%%%%%OOO",
"OOOoooXXXooo###XXX$$$oooooooooooo######XXXXXX$$$XXXooooooooooooXXX######XXXXXXoooXXX###XXXoooOOO",
"OOOoooXXXooo###XXX$$$oooooooooooo######XXXXXX$$$XXXooooooooooooXXX######XXXXXXoooXXX###XXXoooOOO",
"OOOoooXXXooo###XXX$$$oooooooooooo######XXXXXX$$$XXXooooooooooooXXX######XXXXXXoooXXX###XXXoooOOO",
"OOO@@@$$$$$$$$$###XXX$$$$$$$$$$$$$$$$$$$$$$$$XXX$$$$$$$$$$$$$$$$$$$$$$$$$$$$$$$$$$$$XXX@@@@@@OOO",
"OOO@@@$$$$$$$$$###XXX$$$$$$$$$$$$$$$$$$$$$$$$XXX$$$$$$$$$$$$$$$$$$$$$$$$$$$$$$$$$$$$XXX@@@@@@OOO",
"OOO@@@$$$$$$$$$###XXX$$$$$$$$$$$$$$$$$$$$$$$$XXX$$$$$$$$$$$$$$$$$$$$$$$$$$$$$$$$$$$$XXX@@@@@@OOO",
"OOO@@@@@@@@@$$$$$$$$$$$$$$$$$$$$$$$$$$$$$$$$$$$$$$$$$$$$$$$$$$$$$$$$$$$$$$$$$$$$$$$$$$$$$$@@@OOO",
"OOO@@@@@@@@@$$$$$$$$$$$$$$$$$$$$$$$$$$$$$$$$$$$$$$$$$$$$$$$$$$$$$$$$$$$$$$$$$$$$$$$$$$$$$$@@@OOO",
"OOO@@@@@@@@@$$$$$$$$$$$$$$$$$$$$$$$$$$$$$$$$$$$$$$$$$$$$$$$$$$$$$$$$$$$$$$$$$$$$$$$$$$$$$$@@@OOO",
"OOO###XXX@@@$$$$$$$$$$$$$$$$$$XXX$$$$$$$$$@@@$$$XXX$$$$$$$$$@@@@@@XXX$$$$$$$$$###@@@$$$$$$XXXOOO",
"OOO###XXX@@@$$$$$$$$$$$$$$$$$$XXX$$$$$$$$$@@@$$$XXX$$$$$$$$$@@@@@@XXX$$$$$$$$$###@@@$$$$$$XXXOOO",
"OOO###XXX@@@$$$$$$$$$$$$$$$$$$XXX$$$$$$$$$@@@$$$XXX$$$$$$$$$@@@@@@XXX$$$$$$$$$###@@@$$$$$$XXXOOO",
"OOOXXX***###XXXXXX$$$$$$$$$###***XXX$$$@@@@@@XXX***XXX$$$XXX@@@###***XXXXXX###***###@@@###***   ",
"OOOXXX***###XXXXXX$$$$$$$$$###***XXX$$$@@@@@@XXX***XXX$$$XXX@@@###***XXXXXX###***###@@@###***   ",
"OOOXXX***###XXXXXX$$$$$$$$$###***XXX$$$@@@@@@XXX***XXX$$$XXX@@@###***XXXXXX###***###@@@###***   ",
"   ******---******XXXXXXXXX******---###XXX------******XXX...***---------------******###***===   ",
"   ******---******XXXXXXXXX******---###XXX------******XXX...***---------------******###***===   ",
"   ******---******XXXXXXXXX******---###XXX------******XXX...***---------------******###***===   ",
"   ***---------******------***---------------------************------===---------******---===   ",
"   ***---------******------***---------------------************------===---------******---===   ",
"   ***---------******------***---------------------************------===---------******---===   ",
"   ======------------------------------===------------***---------===---------------------===   ",
"   ======------------------------------===------------***---------===---------------------===   ",
"   ======------------------------------===------------***---------===---------------------===   ",
"   ===---===---***---------===------------------------------------------***------------******   ",
"   ===---===---***---------===------------------------------------------***------------******   ",
"   ===---===---***---------===------------------------------------------***------------******   ",
"   ...***************------======------*********************************...***************...   ",
"   ...***************------======------*********************************...***************...   ",
"   ...***************------======------*********************************...***************...   ",
"   ......******************************...***************************......************......   ",
"   ......******************************...***************************......************......   ",
"   ......******************************...***************************......************......   ",
"                                                                                                ",
"                                                                                                ",
"                                                                                                "
};
