/* XPM */
static char *result[] = {
/* columns rows colors chars-per-pixel */
"96 96 2 1 ",
"  c #6D7E3E",
". c #8F974A",
/* pixels */
"................................................................................................",
"................................................................................................",
"................................................................................................",
".............................................................................. .................",
"........................................................... .................  .................",
".................................................... ...... .................  .   .............",
"..................................................... .... ............... .  .   ..............",
".....................................................  ..  ...............    .  ...............",
"......................................................  .  ................      ...............",
"....................................................... .  .................  . ................",
".......................................................    .................  . ................",
"........................................................ .......................................",
"................ ....................................... .......................................",
"................  ..............................................................................",
"................. ..............................................................................",
".................. ..  .........................................................................",
"..................  . ..........................................................................",
"................... .   ........................................................................",
"...................    .........................................................................",
"...................    .........................................................................",
"................................................................................................",
"................................................................................................",
"...............................  ..... .........................................................",
"................................  ...  .........................................................",
".............  .................  .. ... ................ ......................................",
"........  ...  ..................  . ..  ............ ...  ..... ...............................",
".........  .. ...................  . .. .............   ..  ...  ...............................",
"..........    .  .................   . ................  .. ..  ................................",
"...........  .. ..................    ..................  .  .  ................................",
"...........    .......................................... .    .................................",
"............  .................................... ......      .................................",
".................................................. .......    ..................................",
"..................................................  .......  ...................................",
"...................................................   ..... ....................................",
"...................................................  ...........................................",
".................................................... ...........................................",
"................................................................................................",
"................................................................................................",
".................................................................................. .............",
"..........................................................................   .... ..............",
"............................................................................  ... ..............",
".............................................................................  . ...............",
".............................................................................  .  ..............",
"..............................................................................  . ..............",
"................................................................................................",
"...................... .........................................................................",
".....................  .........................................................................",
".............  .....  ..........................  ..............................................",
"..............   ..  .......... .................  ... .........................................",
"...............  .. ..........  .................. ... .........................................",
"................  .  . ......   ..................  .. .  ......................................",
".................    . ....    ...................  .. . .......................................",
"..................     .... .   ...................  .   .......................................",
"...................   .....  .  ...................  .  ........................................",
".................................................... . .........................................",
".................................................... . .........................................",
"....................................................   .........................................",
"....................................................  ..........................................",
"................................................................................................",
"................................................................................................",
"................................................................................................",
"............ .... .................................................... .........................",
"............  ..  ...................................................  .........................",
"............  .. ....................................................  .........  ..... ........",
".............  . ...............................................  ..   .........   ...  ........",
".............  . ................................................  .  ...........      .........",
"........... ..   .................................................   ............. .   .........",
"...........  .   ...............................................     .............. .  .........",
"............  . .............................. ..................    ..............    .........",
"............. . ...........  .. .............. .....................................   .........",
"............... ............  . .............. .....................................   .........",
"............................    .............. ...................................... . ........",
".............................   .............. .................................................",
".............................  . .............  ................................................",
"................................ .............. . ..............................................",
".........................................     .   ..............................................",
".............................................    ...............................................",
"..............................................   ...............................................",
"............................................... ......................... ......................",
"................................ .......................................  ......................",
".........................  ..... ......................................  .......................",
".........................   ...  .................................. ..   .......................",
".................  .......  ... ...................................  .   .......................",
".........   .....  .......   .  .  ............................   ..    ........................",
"...........   ..  ....... .       ...............................       ........................",
".............    ........  .     .................................      ........................",
".............    .........      ...................................    .........................",
".............    ..........   . ................................... ............................",
"............................ ...................................................................",
"................................................................................................",
"................................................................................................",
"................................................................................................",
"................................................................................................",
"................................................................................................",
"................................................................................................",
"................................................................................................"
};
